<?xml version="1.0" encoding="UTF-8"?>
<svg id="Layer_2" data-name="Layer 2" xmlns="http://www.w3.org/2000/svg" viewBox="0 0 19.63 15.39">
  <defs>
    <style>
      .cls-1 {
        fill: #231f20;
      }
    </style>
  </defs>
  <g id="Layer_1-2" data-name="Layer 1">
    <path class="cls-1" d="m19.58,6.13c-.03-.09-.08-.17-.15-.26s-.14-.17-.24-.25c-.09-.08-.2-.16-.32-.24-.12-.08-.26-.15-.4-.23-.15-.07-.31-.15-.48-.22-.17-.07-.36-.14-.55-.2-.2-.06-.4-.13-.62-.19.16.05.32.11.47.16s.29.11.42.17c.13.06.25.12.36.18.11.06.21.13.3.19.09.07.17.13.24.2s.13.14.18.21c.05.07.08.14.11.22.02.07.04.15.04.22,0,.17-.06.33-.18.49-.12.16-.3.31-.53.46s-.51.28-.84.41c-.33.13-.7.25-1.11.36-.37.1-.77.19-1.2.27l-1.3-.9,2.4-4.13-4.58,1.38-1.73-4.45-1.78,4.44-4.56-1.42,2.36,4.16-1.35.92c-.39-.08-.76-.16-1.09-.25-.41-.11-.78-.23-1.11-.36-.33-.13-.61-.27-.84-.41s-.41-.3-.53-.46c-.12-.16-.18-.32-.18-.49,0-.08.02-.16.05-.25.03-.08.07-.16.13-.24s.13-.15.22-.23c.09-.08.18-.15.3-.22s.24-.14.37-.21.28-.13.44-.2c.16-.06.33-.13.51-.19.18-.06.37-.12.57-.17-.26.06-.5.12-.74.19-.23.07-.45.14-.66.21-.21.07-.4.15-.57.23s-.34.16-.48.25c-.15.08-.28.17-.39.26-.11.09-.21.18-.28.27-.08.09-.14.19-.18.28-.04.1-.06.19-.06.29,0,.18.07.36.2.53.13.17.32.34.57.49.25.16.55.31.9.45.35.14.75.27,1.2.39.32.09.68.17,1.04.24l-1.99,1.35,4.72.75-.37,4.76,3.53-3.23,3.49,3.26-.32-4.77,4.73-.7-2.04-1.41c.39-.08.76-.16,1.1-.25.44-.12.85-.25,1.2-.39.35-.14.66-.29.9-.45s.44-.32.57-.49c.13-.17.2-.35.2-.53,0-.09-.02-.18-.05-.27Zm-7.18,4.03l.26,3.9-2.86-2.67-2.88,2.64.3-3.9-3.86-.61,3.24-2.19-1.93-3.4,3.73,1.16,1.45-3.63,1.42,3.64,3.74-1.13-1.96,3.38,3.21,2.22-3.87.57Z"/>
  </g>
</svg>