<?xml version="1.0" encoding="UTF-8"?>
<svg id="Layer_2" data-name="Layer 2" xmlns="http://www.w3.org/2000/svg" viewBox="0 0 230 148.15">
  <g id="Layer_1-2" data-name="Layer 1">
    <path d="m230,74.92v-.42c0-.14,0-.28,0-.42,0-.12,0-.24,0-.36,0-.08,0-.15,0-.23h0s-.01-1.41-.01-1.41h-.02c-.5-19.14-8.23-37.05-21.85-50.58C194.14,7.64,175.61,0,155.92,0h-81.85c-13.2,0-26.16,3.52-37.47,10.17-10.74,6.32-19.77,15.3-26.15,26h-.02l-.41.7-1.24,2.13h.05C3.05,49.75,0,61.83,0,74.08s2.99,24.09,8.67,34.76h-.05l1.22,2.12.41.71h.02c13.3,22.52,37.66,36.49,63.81,36.49h81.85c26.14,0,50.51-13.96,63.81-36.49h.02l.41-.71,1.22-2.12h-.05c5.55-10.42,8.52-22.08,8.66-33.92h.01Zm-2.87-2.83h-35.15c-.2-11.57-2.2-22.93-5.8-33.08h31.79c5.68,10.01,8.84,21.31,9.17,33.08ZM156.46,2.83c18.73.14,36.35,7.47,49.65,20.68,3.9,3.87,7.3,8.12,10.16,12.66h-31.16c-.08-.2-.16-.4-.24-.6-.13-.31-.25-.62-.38-.93-.15-.35-.3-.7-.45-1.05-.13-.31-.26-.61-.4-.91-.15-.35-.31-.69-.47-1.03-.14-.3-.28-.6-.42-.89-.16-.34-.33-.67-.49-1.01-.14-.29-.29-.58-.44-.87-.17-.33-.34-.66-.51-.98-.15-.28-.3-.57-.45-.85-.18-.32-.36-.64-.53-.96-.15-.28-.31-.55-.47-.82-.18-.32-.37-.63-.56-.94-.16-.27-.32-.54-.48-.8-.19-.31-.38-.61-.58-.91-.16-.26-.33-.52-.49-.77-.2-.3-.4-.6-.6-.89-.17-.25-.34-.5-.51-.74-.21-.29-.42-.58-.63-.87-.17-.24-.34-.47-.51-.71-.22-.29-.44-.57-.65-.86-.17-.22-.34-.45-.52-.67-.23-.28-.45-.56-.68-.84-.17-.21-.35-.43-.52-.63-.24-.28-.48-.55-.72-.83-.17-.19-.34-.39-.51-.58-.26-.28-.52-.56-.78-.83-.16-.17-.32-.35-.49-.52-.29-.3-.59-.59-.88-.88-.14-.14-.27-.28-.41-.41-.44-.42-.88-.83-1.32-1.23-.46-.41-.93-.82-1.4-1.21-.17-.14-.34-.27-.5-.4-.3-.25-.61-.49-.92-.73-.2-.15-.4-.3-.6-.44-.28-.21-.56-.42-.84-.62-.21-.15-.43-.29-.65-.44-.27-.19-.55-.37-.82-.55-.22-.14-.45-.28-.67-.42-.27-.17-.54-.34-.82-.5-.23-.13-.46-.26-.69-.39-.27-.15-.55-.31-.82-.45-.23-.12-.46-.24-.69-.35-.28-.14-.55-.28-.83-.41-.23-.11-.47-.21-.7-.32-.2-.09-.39-.18-.59-.27Zm-20,0h6.52c.5,0,1,.01,1.5.04.17,0,.34.03.5.04.33.02.66.04.99.08.2.02.4.05.6.08.3.04.59.07.89.11.21.03.43.07.64.11.28.05.56.09.84.15.22.04.44.1.66.15.27.06.54.12.81.19.22.06.45.12.67.19.26.07.52.14.79.22.23.07.45.15.68.22.26.08.51.17.77.26.23.08.45.17.68.26.25.1.5.19.75.29.23.09.45.19.68.29.25.11.49.21.74.33.23.11.45.22.68.33.24.12.48.24.72.36.23.12.45.24.67.36.24.13.47.26.71.39.22.13.45.26.67.4.23.14.47.28.7.43.22.14.44.28.66.43.23.15.46.3.69.46.22.15.44.31.66.46.23.16.45.32.68.49.22.16.43.33.65.49.22.17.44.35.66.52.21.17.43.35.64.53.22.18.43.37.65.55.21.18.42.37.63.56.21.19.43.39.64.59.21.19.41.39.62.59.21.2.42.41.63.62.2.2.4.41.61.62.21.21.41.43.61.65.2.21.4.43.59.64.2.22.4.45.6.68.19.22.39.44.58.67.2.23.39.47.59.71.19.23.38.46.56.7.19.24.39.49.58.74.18.24.37.48.55.72.19.26.38.52.56.78.18.25.36.49.53.75.19.27.37.54.55.81.17.26.35.51.52.77.18.28.36.56.54.84.17.26.33.52.5.79.18.29.35.59.53.88.16.27.32.53.47.8.17.3.35.61.52.92.15.27.3.54.45.81.17.32.34.65.51.97.14.27.29.54.42.82.17.34.34.69.5,1.03.13.27.26.54.39.81.17.36.34.74.51,1.1.12.26.24.52.36.78.18.4.35.82.52,1.23.1.24.2.47.3.71,0,.02.01.03.02.05h-30.68c-.05-.23-.09-.45-.14-.68-.04-.18-.08-.36-.11-.55-.13-.63-.27-1.25-.41-1.86-.01-.07-.03-.13-.05-.2-.13-.55-.25-1.1-.38-1.64-.04-.18-.09-.36-.13-.53-.12-.47-.23-.94-.35-1.41-.03-.13-.07-.27-.1-.4-.15-.58-.3-1.14-.46-1.7-.04-.14-.08-.28-.12-.41-.12-.44-.25-.88-.38-1.31-.05-.16-.09-.32-.14-.48-.16-.54-.32-1.07-.49-1.59,0-.01,0-.02-.01-.03-.17-.53-.34-1.05-.52-1.56-.05-.15-.1-.29-.15-.43-.14-.4-.28-.8-.42-1.19-.04-.12-.08-.24-.13-.35-.18-.49-.36-.97-.55-1.45-.04-.1-.08-.19-.11-.29-.15-.39-.31-.77-.46-1.14-.05-.13-.11-.26-.16-.39-.18-.42-.35-.83-.53-1.23-.02-.04-.04-.08-.05-.12-.2-.44-.4-.87-.6-1.29-.05-.11-.11-.22-.16-.33-.16-.33-.32-.65-.48-.97-.05-.1-.1-.2-.15-.29-.21-.4-.41-.79-.63-1.17-.03-.06-.06-.11-.09-.17-.18-.32-.37-.64-.55-.95-.06-.1-.12-.2-.18-.3-.19-.31-.37-.61-.56-.91-.03-.05-.06-.1-.09-.15-.22-.34-.44-.67-.66-.98-.05-.08-.11-.15-.16-.23-.18-.25-.36-.49-.54-.73-.06-.08-.12-.16-.18-.23-.23-.3-.46-.58-.69-.86-.02-.03-.04-.05-.07-.08-.21-.25-.42-.49-.64-.72-.07-.07-.13-.14-.2-.21-.19-.2-.39-.4-.58-.6-.05-.05-.09-.1-.14-.14-.24-.23-.47-.45-.71-.66-.06-.05-.12-.1-.18-.15-.11-.09-.22-.19-.33-.28Zm-20.04,0h12.83c.24,0,.48.01.72.04.08,0,.16.03.24.04.16.02.32.04.48.08.1.02.19.05.29.08.14.04.28.07.43.12.1.03.21.08.31.11.13.05.27.1.4.15.11.05.21.1.32.15.13.06.26.12.39.19.11.06.22.12.32.19.13.07.25.15.38.23.11.07.22.15.33.22.12.09.25.17.37.26.11.08.22.17.33.26.12.1.24.19.37.3.11.09.22.2.33.3.12.11.24.22.36.33.11.11.22.22.33.33.12.12.24.24.35.36.11.12.22.24.33.37.12.13.23.26.35.4.11.13.22.26.33.4.11.14.23.28.34.43.11.14.22.29.33.43.11.15.23.3.34.46.11.15.22.31.32.47.11.16.22.32.33.49.11.16.22.33.32.5.11.17.22.34.32.52.11.17.21.35.32.53.11.18.21.36.32.55.11.19.21.37.31.56.1.19.21.38.31.58.1.2.21.39.31.59.1.2.21.4.31.61.1.21.2.41.3.62.1.21.2.43.3.64.1.21.2.43.3.65.1.22.2.44.3.67.1.22.19.45.29.68.1.23.19.46.29.7.1.23.19.47.28.71.09.24.19.48.28.73.09.24.19.48.28.73.09.25.19.51.28.76.09.25.18.5.27.75.09.26.18.53.27.8.09.26.17.51.26.77.09.27.18.55.27.83.08.26.17.52.25.79.09.28.17.57.26.86.08.27.16.54.24.81.09.3.17.6.26.9.08.27.15.54.23.82.09.31.17.63.25.95.07.27.14.54.21.82.08.33.17.67.25,1,.07.27.13.54.2.81.08.35.16.71.25,1.06.06.27.12.53.18.8.08.37.16.75.25,1.13.05.26.11.51.16.77.01.05.02.11.03.16h-32.07V2.83Zm-2.83,0v33.34h-32.07c.01-.05.02-.11.03-.16.05-.26.11-.51.16-.77.08-.38.16-.76.25-1.13.06-.27.12-.53.18-.8.08-.35.16-.71.25-1.06.07-.27.13-.54.2-.81.08-.33.16-.67.25-1,.07-.27.14-.54.21-.82.08-.32.17-.63.25-.95.07-.27.15-.54.23-.82.08-.3.17-.6.26-.9.08-.27.16-.54.24-.81.09-.29.17-.58.26-.86.08-.27.17-.53.25-.79.09-.28.18-.55.27-.83.09-.26.17-.51.26-.77.09-.27.18-.53.27-.8.09-.25.18-.5.27-.75.09-.26.18-.51.28-.76.09-.25.18-.49.28-.73.09-.24.19-.49.28-.73.09-.24.19-.47.28-.71.1-.24.19-.47.29-.7.1-.23.19-.45.29-.68.1-.23.2-.45.3-.67.1-.22.2-.44.3-.65.1-.22.2-.43.3-.64.1-.21.2-.42.3-.62.1-.21.2-.41.31-.61.1-.2.21-.4.31-.59.1-.2.21-.39.31-.58.1-.19.21-.38.31-.56.11-.19.21-.37.32-.55.11-.18.21-.36.32-.53.11-.18.22-.35.32-.52.11-.17.21-.34.32-.5.11-.17.22-.33.33-.49.11-.16.22-.32.32-.47.11-.16.22-.31.34-.46.11-.15.22-.29.33-.43.11-.15.23-.29.34-.43.11-.13.22-.27.33-.4.12-.14.23-.27.35-.4.11-.12.22-.25.33-.37.12-.13.24-.24.35-.36.11-.11.22-.22.33-.33.12-.12.24-.22.36-.33.11-.1.22-.2.33-.3.12-.1.24-.2.37-.3.11-.09.22-.18.33-.26.12-.09.25-.18.37-.26.11-.08.22-.15.33-.22.13-.08.25-.15.38-.23.11-.06.22-.13.32-.19.13-.07.26-.13.39-.19.11-.05.21-.11.32-.15.13-.06.27-.1.4-.15.1-.04.21-.08.31-.11.14-.05.28-.08.43-.12.1-.02.19-.06.29-.08.16-.03.32-.06.48-.08.08-.01.16-.03.24-.04.24-.03.48-.04.72-.04h12.83Zm-20.04,0c-.11.09-.22.18-.33.28-.06.05-.12.1-.18.15-.24.21-.48.43-.71.66-.05.05-.09.09-.14.14-.19.19-.39.39-.58.6-.07.07-.13.14-.2.21-.21.23-.43.47-.64.72-.02.03-.04.05-.07.08-.23.28-.46.56-.69.86-.06.08-.12.16-.18.23-.18.24-.36.48-.54.73-.06.08-.11.15-.17.23-.22.32-.44.65-.66.98-.03.05-.06.1-.09.15-.19.29-.38.6-.56.91-.06.1-.12.2-.18.3-.18.31-.37.63-.55.95-.03.06-.06.11-.09.17-.21.38-.42.77-.63,1.17-.05.1-.1.2-.15.29-.16.32-.32.64-.48.97-.05.11-.11.22-.16.33-.2.42-.4.85-.6,1.29-.02.04-.04.08-.05.12-.18.4-.36.81-.53,1.23-.05.13-.11.26-.16.39-.16.38-.31.76-.46,1.14-.04.1-.08.19-.11.29-.18.47-.37.96-.55,1.45-.04.12-.08.24-.13.35-.14.39-.28.79-.42,1.19-.05.14-.1.29-.15.43-.17.51-.35,1.03-.52,1.56,0,.01,0,.02-.01.04-.17.52-.33,1.05-.49,1.58-.05.16-.1.32-.14.48-.13.43-.25.87-.38,1.3-.04.14-.08.28-.12.41-.16.56-.31,1.13-.46,1.7-.03.13-.07.27-.1.4-.12.46-.24.93-.35,1.41-.04.18-.09.36-.13.53-.13.54-.26,1.09-.38,1.64-.01.07-.03.13-.05.2-.14.61-.27,1.24-.41,1.86-.04.18-.08.36-.11.55-.05.23-.09.45-.14.68h-30.68s.01-.03.02-.05c.1-.24.2-.47.3-.71.17-.41.35-.82.52-1.23.12-.26.24-.52.36-.78.17-.37.33-.74.51-1.1.13-.27.26-.54.39-.81.17-.34.33-.69.5-1.03.14-.28.28-.54.42-.82.17-.32.34-.65.51-.97.15-.27.3-.54.45-.81.17-.31.34-.62.52-.92.16-.27.32-.54.47-.8.17-.29.35-.59.53-.88.16-.27.33-.53.5-.79.18-.28.36-.56.54-.84.17-.26.34-.51.52-.77.18-.27.36-.54.55-.81.18-.25.35-.5.53-.75.19-.26.37-.52.56-.78.18-.24.36-.48.55-.72.19-.25.38-.5.58-.74.19-.24.37-.47.56-.7.2-.24.39-.48.59-.71.19-.23.38-.45.58-.67.2-.23.4-.46.6-.68.2-.22.39-.43.59-.64.2-.22.41-.44.61-.65.2-.21.4-.41.61-.62.21-.21.42-.41.63-.62.2-.2.41-.39.62-.59.21-.2.43-.39.64-.59.21-.19.42-.37.63-.56.22-.19.43-.37.65-.55.21-.18.42-.35.64-.53.22-.18.44-.35.66-.52.22-.17.43-.33.65-.49.22-.17.45-.33.68-.49.22-.16.44-.31.66-.46.23-.16.46-.31.69-.46.22-.15.44-.29.66-.43.23-.15.46-.29.7-.43.22-.13.45-.27.67-.4.24-.14.47-.26.71-.39.22-.12.45-.25.67-.36.24-.12.48-.24.72-.36.23-.11.45-.22.68-.33.24-.11.49-.22.74-.33.23-.1.45-.2.68-.29.25-.1.5-.2.75-.29.23-.09.45-.18.68-.26.25-.09.51-.17.77-.26.23-.07.45-.15.68-.22.26-.08.52-.15.79-.22.22-.06.45-.13.67-.19.27-.07.54-.13.81-.19.22-.05.44-.1.66-.15.28-.06.56-.1.84-.15.21-.04.42-.08.64-.11.29-.05.59-.08.89-.11.2-.02.4-.05.6-.08.33-.03.66-.05.99-.08.17-.01.34-.03.5-.04.5-.03,1-.04,1.5-.04h6.52Zm-55.5,9.78c10.73-6.31,22.99-9.69,35.5-9.78-.2.09-.39.18-.59.27-.23.1-.47.21-.7.32-.28.13-.56.28-.84.42-.23.12-.46.23-.69.35-.28.15-.56.31-.83.46-.22.13-.45.25-.67.38-.28.16-.55.34-.83.51-.22.14-.44.27-.66.41-.28.18-.56.37-.84.56-.21.14-.42.28-.63.43-.29.2-.57.42-.86.63-.2.15-.4.29-.59.44-.31.24-.62.49-.92.74-.17.13-.33.26-.5.4-.47.39-.94.79-1.4,1.21-.45.4-.89.81-1.32,1.23-.14.13-.27.27-.41.41-.3.29-.59.58-.89.89-.16.17-.32.34-.48.52-.26.28-.52.55-.78.84-.17.19-.34.39-.51.58-.24.27-.48.55-.72.83-.18.21-.35.42-.52.63-.23.28-.46.55-.68.84-.17.22-.35.45-.52.67-.22.28-.44.57-.65.86-.17.23-.34.47-.51.71-.21.29-.42.58-.63.87-.17.24-.34.49-.51.74-.2.3-.4.59-.6.89-.17.25-.33.51-.49.77-.19.3-.39.61-.58.91-.16.26-.32.53-.48.8-.19.31-.37.62-.56.94-.16.27-.31.55-.47.82-.18.32-.36.64-.54.96-.15.28-.3.56-.45.85-.17.33-.34.65-.51.98-.15.29-.29.58-.44.87-.17.33-.33.67-.49,1.01-.14.3-.28.6-.42.89-.16.34-.31.68-.47,1.03-.14.3-.27.61-.4.91-.15.35-.3.7-.45,1.05-.13.31-.25.62-.38.93-.08.2-.16.4-.24.6H13.76c6.08-9.66,14.43-17.77,24.28-23.56Zm-25.97,26.39h31.76c-3.6,10.15-5.6,21.51-5.8,33.08H2.86c.33-11.61,3.49-22.99,9.21-33.08ZM2.84,74.92h35.17c.09,11.84,2.06,23.5,5.72,33.92H11.9c-5.79-10.35-8.92-22.04-9.06-33.92Zm70.78,70.4c-24.41-.16-47.16-12.96-60.05-33.65h31.2c.11.29.23.57.34.85.07.17.14.35.21.52.25.61.51,1.22.77,1.82.07.15.14.3.2.46.21.47.42.93.63,1.39.09.19.18.38.27.57.24.5.48.99.72,1.48.05.09.09.19.14.29.29.57.59,1.14.88,1.69.09.16.18.32.26.48.23.42.47.84.71,1.26.09.16.18.31.27.47.32.54.63,1.08.96,1.6.04.06.08.13.12.19.29.47.59.93.89,1.39.1.15.2.3.3.45.27.41.55.81.83,1.21.08.11.15.22.22.32.35.49.7.98,1.06,1.46.08.1.16.2.23.31.29.38.59.76.88,1.13.1.13.2.26.31.38.35.43.7.85,1.05,1.27.02.03.05.06.07.09.38.44.77.88,1.16,1.3.1.11.2.22.3.32.31.33.62.66.94.98.1.1.19.2.29.3.4.4.8.8,1.21,1.19.05.04.09.08.14.13.36.34.73.67,1.1,1,.11.1.22.2.34.29.35.3.7.6,1.05.89.07.06.15.12.22.18.42.34.85.68,1.28,1,.09.07.19.14.28.21.35.26.69.51,1.04.75.12.08.23.16.35.24.43.3.86.58,1.3.86,0,0,.01,0,.02.01.44.28.89.55,1.34.81.12.07.24.14.36.21.35.2.71.39,1.06.58.11.06.22.12.34.18.45.23.91.46,1.36.67.08.04.15.07.23.1.27.12.54.25.81.36Zm19.92,0h-6.51c-.5,0-1.01-.01-1.51-.04-.17,0-.33-.03-.5-.04-.34-.02-.67-.04-1-.08-.2-.02-.4-.05-.6-.07-.3-.04-.6-.07-.9-.12-.21-.03-.42-.07-.63-.11-.28-.05-.57-.1-.85-.15-.22-.04-.43-.1-.65-.15-.28-.06-.55-.12-.83-.19-.22-.06-.44-.12-.65-.18-.27-.08-.54-.15-.81-.23-.22-.07-.44-.14-.66-.22-.26-.09-.53-.17-.79-.27-.22-.08-.44-.17-.66-.25-.26-.1-.52-.2-.78-.31-.22-.09-.44-.19-.66-.28-.26-.11-.51-.22-.77-.34-.22-.1-.43-.21-.65-.32-.25-.12-.51-.25-.76-.38-.22-.11-.43-.23-.64-.35-.25-.14-.5-.27-.75-.42-.21-.12-.43-.25-.64-.38-.25-.15-.49-.3-.74-.45-.21-.13-.42-.27-.63-.41-.24-.16-.49-.32-.73-.49-.21-.14-.41-.29-.62-.44-.24-.17-.48-.35-.72-.52-.2-.15-.41-.31-.61-.47-.24-.18-.47-.37-.71-.56-.2-.16-.4-.33-.6-.5-.23-.2-.46-.39-.69-.6-.2-.17-.39-.35-.59-.53-.23-.21-.46-.42-.68-.63-.19-.18-.39-.37-.58-.55-.22-.22-.45-.44-.67-.66-.19-.19-.38-.38-.56-.58-.22-.23-.44-.46-.66-.7-.18-.2-.37-.4-.55-.6-.22-.24-.43-.49-.65-.74-.18-.21-.36-.42-.54-.63-.21-.25-.42-.51-.63-.77-.17-.22-.35-.43-.52-.65-.21-.26-.41-.53-.62-.81-.17-.22-.34-.45-.51-.67-.2-.28-.4-.56-.61-.84-.16-.23-.33-.46-.49-.7-.2-.29-.4-.58-.59-.88-.16-.24-.32-.47-.47-.72-.2-.3-.39-.61-.58-.92-.15-.24-.3-.48-.45-.73-.19-.32-.38-.64-.57-.96-.14-.25-.29-.49-.43-.74-.19-.33-.37-.67-.56-1.01-.14-.25-.27-.5-.41-.75-.19-.35-.37-.7-.55-1.06-.13-.25-.26-.5-.39-.75-.18-.37-.36-.74-.54-1.12-.12-.25-.24-.49-.35-.74-.19-.4-.37-.8-.55-1.21-.1-.23-.21-.46-.31-.7-.19-.44-.38-.89-.56-1.34-.09-.21-.17-.41-.26-.62,0-.02-.02-.05-.03-.07h30.74c.04.22.09.44.14.67.04.2.08.39.12.59.13.63.26,1.25.4,1.86.02.09.04.17.06.26.12.54.24,1.07.37,1.59.05.19.09.38.14.57.11.46.22.91.34,1.37.04.15.08.3.11.45.15.57.3,1.14.45,1.7.04.15.09.3.13.46.12.43.24.85.36,1.27.05.17.1.35.15.52.15.5.3,1,.46,1.49.01.05.03.09.04.14.17.53.34,1.04.51,1.55.05.16.11.32.16.48.13.38.26.76.4,1.14.05.14.1.28.15.42.18.49.36.96.54,1.43.04.11.09.22.13.32.15.37.3.74.44,1.11.06.14.12.29.18.43.16.39.32.77.49,1.14.03.07.06.15.09.22.19.43.39.86.59,1.27.06.12.12.24.17.36.15.32.31.63.46.93.06.11.12.23.17.34.2.39.41.78.62,1.16.03.06.07.12.1.18.18.32.36.64.54.95.06.11.13.22.19.32.17.29.35.57.53.85.04.07.09.14.13.21.22.34.44.66.66.98.06.08.12.16.17.24.17.24.35.48.52.71.07.09.13.17.2.26.23.29.45.58.68.86.01.01.02.03.04.04.22.26.44.51.66.76.07.07.14.15.2.22.19.2.37.39.56.58.06.06.11.11.17.17.24.23.48.45.71.66.05.05.11.09.16.13.12.1.24.21.36.31Zm20.05,0h-12.83c-.24,0-.48-.01-.72-.04-.08,0-.16-.03-.24-.04-.16-.02-.32-.04-.48-.08-.1-.02-.19-.05-.29-.08-.14-.04-.29-.07-.43-.12-.1-.03-.2-.08-.31-.11-.14-.05-.27-.1-.41-.16-.11-.05-.21-.1-.32-.15-.13-.06-.26-.12-.4-.19-.11-.06-.21-.12-.32-.19-.13-.08-.26-.15-.39-.23-.11-.07-.22-.15-.32-.22-.13-.09-.26-.17-.38-.27-.11-.08-.22-.17-.32-.26-.13-.1-.25-.2-.38-.31-.11-.09-.22-.19-.32-.29-.12-.11-.25-.22-.37-.34-.11-.1-.22-.21-.32-.32-.12-.12-.24-.25-.37-.38-.11-.12-.21-.24-.32-.36-.12-.14-.24-.27-.36-.41-.11-.13-.21-.26-.32-.39-.12-.15-.24-.3-.36-.45-.11-.14-.21-.28-.32-.42-.12-.16-.24-.32-.35-.48-.1-.15-.21-.3-.31-.45-.12-.17-.23-.34-.35-.52-.1-.16-.2-.32-.31-.48-.12-.18-.23-.37-.34-.56-.1-.17-.2-.34-.3-.51-.11-.19-.23-.39-.34-.59-.1-.18-.2-.36-.3-.54-.11-.2-.22-.41-.33-.62-.1-.19-.19-.37-.29-.56-.11-.22-.22-.43-.33-.65-.1-.19-.19-.39-.29-.59-.11-.23-.21-.45-.32-.69-.09-.2-.19-.41-.28-.62-.11-.24-.21-.48-.31-.72-.09-.21-.18-.43-.27-.64-.1-.25-.21-.5-.31-.75-.09-.22-.18-.44-.27-.67-.1-.26-.2-.52-.3-.78-.09-.23-.17-.46-.26-.69-.1-.27-.2-.54-.29-.81-.09-.24-.17-.48-.25-.72-.1-.28-.19-.56-.29-.84-.08-.25-.17-.49-.25-.74-.09-.29-.19-.58-.28-.87-.08-.25-.16-.51-.24-.77-.09-.29-.18-.59-.27-.89-.08-.26-.16-.53-.23-.79-.09-.3-.17-.61-.26-.92-.08-.27-.15-.54-.23-.82-.08-.31-.17-.63-.25-.95-.07-.28-.15-.56-.22-.84-.08-.32-.16-.65-.24-.97-.07-.29-.14-.57-.21-.87-.08-.32-.15-.65-.23-.98-.07-.3-.14-.59-.2-.9-.07-.33-.14-.67-.22-1.01-.06-.31-.13-.61-.19-.92-.01-.05-.02-.1-.03-.15h32.13v33.65Zm0-36.49H46.73c-3.77-10.36-5.81-22.05-5.9-33.94v-1.39s0,0,0,0v-.46c.11-11.95,2.19-23.68,6.01-34.04h136.3c3.87,10.49,5.94,22.4,6.01,34.5v.99c-.04,12.02-2.08,23.86-5.89,34.34h-69.68Zm2.83,36.49v-33.65h32.13s-.02.1-.03.15c-.06.31-.13.61-.19.92-.07.34-.14.67-.22,1.01-.07.3-.14.6-.2.9-.08.33-.15.66-.23.98-.07.29-.14.58-.21.87-.08.32-.16.65-.24.97-.07.28-.14.56-.22.84-.08.32-.17.63-.25.95-.07.27-.15.55-.23.82-.09.31-.17.62-.26.92-.08.27-.16.53-.23.79-.09.3-.18.6-.27.89-.08.26-.16.51-.24.77-.09.29-.18.58-.28.87-.08.25-.17.5-.25.75-.09.28-.19.56-.28.84-.08.24-.17.48-.25.72-.1.27-.19.54-.29.81-.09.23-.17.46-.26.69-.1.26-.2.52-.3.78-.09.23-.18.45-.27.67-.1.25-.2.5-.31.75-.09.22-.18.43-.27.64-.1.24-.21.48-.31.72-.09.21-.19.41-.28.62-.11.23-.21.46-.32.69-.09.2-.19.4-.29.59-.11.22-.22.44-.33.65-.1.19-.19.38-.29.56-.11.21-.22.42-.33.62-.1.18-.2.36-.3.54-.11.2-.23.39-.34.59-.1.17-.2.34-.3.51-.11.19-.23.37-.34.56-.1.16-.2.32-.31.48-.12.18-.23.35-.35.52-.1.15-.21.3-.31.45-.12.17-.23.32-.35.48-.1.14-.21.28-.32.42-.12.15-.24.3-.36.45-.11.13-.21.26-.32.39-.12.14-.24.28-.36.41-.11.12-.21.24-.32.36-.12.13-.24.25-.37.38-.11.11-.21.22-.32.32-.12.12-.25.23-.37.34-.11.1-.22.2-.32.29-.13.11-.25.21-.38.31-.11.09-.22.18-.32.26-.13.1-.25.18-.38.27-.11.07-.22.15-.32.22-.13.08-.26.16-.39.23-.11.06-.21.13-.32.19-.13.07-.26.13-.4.19-.11.05-.21.11-.32.15-.14.06-.27.11-.41.16-.1.04-.2.08-.31.11-.14.05-.29.08-.43.12-.1.02-.19.06-.29.08-.16.03-.32.06-.48.08-.08.01-.16.03-.24.04-.24.03-.48.04-.72.04h-12.83Zm20.05,0c.12-.1.24-.21.36-.31.05-.05.11-.09.16-.13.24-.21.48-.43.71-.66.06-.05.11-.11.17-.17.19-.19.37-.38.56-.58.07-.07.14-.15.2-.22.22-.24.44-.5.66-.76.01-.01.02-.03.04-.04.23-.28.46-.56.68-.86.07-.09.13-.17.2-.26.17-.23.35-.47.52-.71.06-.08.12-.16.17-.24.22-.32.44-.64.66-.98.05-.07.09-.14.13-.21.18-.28.35-.56.53-.85.06-.11.13-.22.19-.32.18-.31.36-.62.54-.95.03-.06.07-.12.1-.18.21-.38.41-.76.62-1.16.06-.11.12-.23.17-.34.15-.31.31-.62.46-.93.06-.12.12-.24.17-.36.2-.42.39-.84.59-1.27.03-.07.06-.15.09-.22.16-.37.33-.75.49-1.14.06-.14.12-.28.18-.43.15-.36.3-.73.44-1.11.04-.11.09-.22.13-.32.18-.47.36-.95.54-1.43.05-.14.1-.28.15-.42.13-.38.27-.75.4-1.14.05-.16.11-.32.16-.48.17-.51.34-1.02.51-1.55.01-.05.03-.09.04-.14.15-.49.31-.99.46-1.49.05-.17.1-.35.15-.52.12-.42.24-.84.36-1.27.04-.15.09-.3.13-.46.15-.56.3-1.12.45-1.7.04-.15.08-.3.11-.45.11-.45.23-.91.34-1.37.05-.19.09-.38.14-.57.13-.53.25-1.06.37-1.59.02-.09.04-.17.06-.26.14-.61.27-1.23.4-1.86.04-.19.08-.39.12-.59.05-.22.09-.44.14-.67h30.74s-.02.05-.03.07c-.08.21-.17.41-.26.62-.19.45-.37.9-.56,1.34-.1.24-.21.46-.31.7-.18.4-.36.81-.55,1.21-.12.25-.24.49-.35.74-.18.37-.36.75-.54,1.12-.13.25-.26.5-.39.75-.18.35-.36.71-.55,1.06-.13.25-.27.5-.41.75-.19.34-.37.67-.56,1.01-.14.25-.29.49-.43.74-.19.32-.38.65-.57.96-.15.25-.3.49-.45.73-.19.31-.39.62-.58.92-.16.24-.32.48-.47.71-.2.29-.39.59-.59.88-.16.23-.33.46-.49.7-.2.28-.4.56-.61.84-.17.23-.34.45-.51.67-.21.27-.41.54-.62.81-.17.22-.35.44-.52.65-.21.26-.42.52-.63.77-.18.21-.36.42-.54.63-.21.25-.43.49-.65.74-.18.2-.37.4-.55.6-.22.24-.44.47-.66.7-.19.2-.38.39-.56.58-.22.22-.45.45-.67.66-.19.19-.38.37-.58.55-.23.21-.45.42-.68.63-.2.18-.39.35-.59.53-.23.2-.46.4-.69.6-.2.17-.4.33-.6.5-.23.19-.47.38-.71.56-.2.16-.41.32-.61.47-.24.18-.48.35-.72.52-.21.15-.41.3-.62.44-.24.17-.48.33-.73.49-.21.14-.42.28-.63.41-.24.15-.49.3-.74.45-.21.13-.42.26-.64.38-.25.14-.5.28-.75.42-.21.12-.43.24-.64.35-.25.13-.51.26-.76.38-.22.11-.43.21-.65.32-.26.12-.51.23-.77.34-.22.1-.44.19-.66.28-.26.11-.52.21-.78.31-.22.08-.44.17-.66.25-.26.09-.53.18-.79.27-.22.07-.44.15-.66.22-.27.08-.54.16-.81.23-.22.06-.44.13-.65.18-.28.07-.55.13-.83.19-.22.05-.43.1-.65.15-.28.06-.57.1-.85.15-.21.04-.42.08-.63.11-.3.05-.6.08-.9.12-.2.02-.4.05-.6.07-.33.03-.67.06-1,.08-.17.01-.33.03-.5.04-.5.03-1.01.04-1.51.04h-6.51Zm19.92,0c.27-.12.54-.24.81-.36.08-.04.15-.07.23-.1.46-.21.91-.44,1.36-.67.11-.06.22-.12.34-.18.36-.19.71-.38,1.06-.58.12-.07.24-.14.36-.21.45-.26.9-.53,1.34-.81,0,0,.01,0,.02-.01.44-.28.87-.57,1.3-.86.12-.08.23-.16.35-.24.35-.25.7-.5,1.04-.75.09-.07.19-.14.28-.21.43-.32.86-.66,1.28-1,.07-.06.15-.12.22-.18.35-.29.7-.59,1.05-.89.11-.1.22-.2.34-.29.37-.33.74-.66,1.1-1,.05-.04.09-.08.14-.13.41-.39.81-.78,1.21-1.19.1-.1.19-.2.29-.3.31-.32.63-.65.94-.98.1-.11.2-.21.3-.32.39-.43.78-.86,1.16-1.3.02-.03.05-.06.07-.09.36-.41.71-.84,1.05-1.27.1-.13.2-.25.31-.38.3-.37.59-.75.88-1.13.08-.1.16-.2.23-.31.36-.48.71-.96,1.06-1.46.08-.11.15-.22.22-.32.28-.4.55-.8.83-1.21.1-.15.2-.3.3-.45.3-.46.59-.92.89-1.39.04-.06.08-.13.12-.19.32-.53.64-1.06.96-1.6.09-.15.18-.31.27-.47.24-.42.47-.84.71-1.26.09-.16.18-.32.26-.48.3-.56.6-1.12.88-1.69.05-.09.09-.19.14-.29.24-.49.49-.98.72-1.48.09-.19.18-.38.27-.57.21-.46.42-.92.63-1.39.07-.15.14-.3.2-.46.26-.6.52-1.2.77-1.82.07-.17.14-.35.21-.52.11-.28.23-.56.34-.85h31.2c-12.88,20.69-35.64,33.49-60.05,33.65Zm61.72-36.49h-31.82c3.66-10.42,5.63-22.08,5.72-33.92h35.17c-.14,11.88-3.26,23.57-9.06,33.92Z"/>
  </g>
</svg>