<?xml version="1.0" encoding="UTF-8"?>
<svg id="Layer_1" data-name="Layer 1" xmlns="http://www.w3.org/2000/svg" viewBox="0 0 4549.75 3202.79">
  <rect x="299.32" y="1793.17" width="59.87" height="48.96"/>
  <rect x="299.32" y="1621.81" width="59.87" height="48.96"/>
  <rect x="299.32" y="1450.46" width="59.87" height="48.95"/>
  <rect x="299.32" y="1107.74" width="59.87" height="48.96"/>
  <rect x="299.32" y="593.68" width="59.87" height="48.96"/>
  <rect x="299.32" y="936.39" width="59.87" height="48.96"/>
  <rect x="299.32" y="765.03" width="59.87" height="48.96"/>
  <rect x="299.32" y="1279.1" width="59.87" height="48.96"/>
  <rect x="299.32" y="2649.95" width="59.87" height="48.96"/>
  <rect x="299.32" y="419.06" width="59.87" height="52.22"/>
  <rect x="299.32" y="2821.31" width="59.87" height="52.22"/>
  <rect x="299.32" y="2135.88" width="59.87" height="48.95"/>
  <rect x="299.32" y="2478.6" width="59.87" height="48.95"/>
  <rect x="299.32" y="1964.52" width="59.87" height="48.96"/>
  <rect x="299.32" y="2307.24" width="59.87" height="48.96"/>
  <rect x="4160.63" y="1793.17" width="59.87" height="48.96"/>
  <rect x="4160.63" y="1621.81" width="59.87" height="48.96"/>
  <rect x="4160.63" y="1450.46" width="59.87" height="48.95"/>
  <rect x="4160.63" y="1107.74" width="59.87" height="48.96"/>
  <rect x="4160.63" y="593.68" width="59.87" height="48.96"/>
  <rect x="4160.63" y="936.39" width="59.87" height="48.96"/>
  <rect x="4160.63" y="765.03" width="59.87" height="48.96"/>
  <rect x="4160.63" y="1279.1" width="59.87" height="48.96"/>
  <rect x="4160.63" y="2649.95" width="59.87" height="48.96"/>
  <rect x="4160.63" y="419.06" width="59.87" height="52.22"/>
  <rect x="4160.63" y="2821.31" width="59.87" height="52.22"/>
  <rect x="4160.63" y="2135.88" width="59.87" height="48.95"/>
  <rect x="4160.63" y="2478.6" width="59.87" height="48.95"/>
  <rect x="4160.63" y="1964.52" width="59.87" height="48.96"/>
  <rect x="4160.63" y="2307.24" width="59.87" height="48.96"/>
  <rect x="3630.35" y="1793.17" width="410.55" height="48.96"/>
  <rect x="3630.35" y="1621.81" width="410.55" height="48.96"/>
  <rect x="3630.35" y="1450.46" width="410.55" height="48.95"/>
  <rect x="3630.35" y="1107.74" width="410.55" height="48.96"/>
  <rect x="3630.35" y="593.68" width="410.55" height="48.96"/>
  <rect x="3630.35" y="936.39" width="410.55" height="48.96"/>
  <rect x="3630.35" y="765.03" width="410.55" height="48.96"/>
  <rect x="3630.35" y="1279.1" width="410.55" height="48.96"/>
  <rect x="3630.35" y="2649.95" width="410.55" height="48.96"/>
  <rect x="3630.35" y="419.06" width="410.55" height="52.22"/>
  <rect x="3630.35" y="2821.31" width="410.55" height="52.22"/>
  <rect x="3630.35" y="2135.88" width="410.55" height="48.95"/>
  <rect x="3630.35" y="2478.6" width="410.55" height="48.95"/>
  <rect x="3630.35" y="1964.52" width="410.55" height="48.96"/>
  <rect x="3630.35" y="2307.24" width="410.55" height="48.96"/>
  <rect x="3316.9" y="1793.17" width="185.21" height="48.96"/>
  <rect x="3316.9" y="2649.95" width="185.21" height="48.96"/>
  <rect x="3316.9" y="2821.31" width="185.21" height="52.22"/>
  <rect x="3316.9" y="2135.88" width="185.21" height="48.95"/>
  <rect x="3316.9" y="2478.6" width="185.21" height="48.95"/>
  <rect x="3316.9" y="1964.52" width="185.21" height="48.96"/>
  <rect x="3316.9" y="2307.24" width="185.21" height="48.96"/>
  <rect x="3008.22" y="2649.95" width="185.21" height="48.96"/>
  <rect x="3008.22" y="2821.31" width="185.21" height="52.22"/>
  <rect x="3008.22" y="2478.6" width="185.21" height="48.95"/>
  <rect x="3008.22" y="2307.24" width="185.21" height="48.96"/>
  <rect x="2699.54" y="1793.17" width="185.21" height="48.96"/>
  <rect x="2699.54" y="2649.95" width="185.21" height="48.96"/>
  <rect x="2699.54" y="2821.31" width="185.21" height="52.22"/>
  <rect x="2699.54" y="2135.88" width="185.21" height="48.95"/>
  <rect x="2699.54" y="2478.6" width="185.21" height="48.95"/>
  <rect x="2699.54" y="1964.52" width="185.21" height="48.96"/>
  <rect x="2699.54" y="2307.24" width="185.21" height="48.96"/>
  <rect x="2390.86" y="1793.17" width="185.21" height="48.96"/>
  <rect x="2390.86" y="1621.81" width="185.21" height="48.96"/>
  <rect x="2390.86" y="1450.46" width="185.21" height="48.95"/>
  <rect x="2390.86" y="1107.74" width="185.21" height="48.96"/>
  <rect x="2390.86" y="1279.1" width="185.21" height="48.96"/>
  <rect x="2390.86" y="2649.95" width="185.21" height="48.96"/>
  <rect x="2390.86" y="2821.31" width="185.21" height="52.22"/>
  <rect x="2390.86" y="2135.88" width="185.21" height="48.95"/>
  <rect x="2390.86" y="2478.6" width="185.21" height="48.95"/>
  <rect x="2390.86" y="1964.52" width="185.21" height="48.96"/>
  <rect x="2390.86" y="2307.24" width="185.21" height="48.96"/>
  <rect x="2082.18" y="1793.17" width="185.21" height="48.96"/>
  <rect x="2082.18" y="1621.81" width="185.21" height="48.96"/>
  <rect x="2082.18" y="1450.46" width="185.21" height="48.95"/>
  <rect x="2082.18" y="1107.74" width="185.21" height="48.96"/>
  <rect x="2082.18" y="593.68" width="185.21" height="48.96"/>
  <rect x="2082.18" y="936.39" width="185.21" height="48.96"/>
  <rect x="2082.18" y="765.03" width="185.21" height="48.96"/>
  <rect x="2082.18" y="1279.1" width="185.21" height="48.96"/>
  <rect x="2082.18" y="2649.95" width="185.21" height="48.96"/>
  <rect x="2082.18" y="2821.31" width="185.21" height="52.22"/>
  <rect x="2082.18" y="2135.88" width="185.21" height="48.95"/>
  <rect x="2082.18" y="2478.6" width="185.21" height="48.95"/>
  <rect x="2082.18" y="1964.52" width="185.21" height="48.96"/>
  <rect x="2082.18" y="2307.24" width="185.21" height="48.96"/>
  <rect x="1773.5" y="1793.17" width="185.21" height="48.96"/>
  <rect x="1773.5" y="1621.81" width="185.21" height="48.96"/>
  <rect x="1773.5" y="1450.46" width="185.21" height="48.95"/>
  <rect x="1773.5" y="1107.74" width="185.21" height="48.96"/>
  <rect x="1773.5" y="593.68" width="185.21" height="48.96"/>
  <rect x="1773.5" y="936.39" width="185.21" height="48.96"/>
  <rect x="1773.5" y="765.03" width="185.21" height="48.96"/>
  <rect x="1773.5" y="1279.1" width="185.21" height="48.96"/>
  <rect x="1773.5" y="2649.95" width="185.21" height="48.96"/>
  <rect x="1773.5" y="2821.31" width="185.21" height="52.22"/>
  <rect x="1773.5" y="2135.88" width="185.21" height="48.95"/>
  <rect x="1773.5" y="2478.6" width="185.21" height="48.95"/>
  <rect x="1773.5" y="1964.52" width="185.21" height="48.96"/>
  <rect x="1773.5" y="2307.24" width="185.21" height="48.96"/>
  <rect x="1464.82" y="1793.17" width="185.21" height="48.96"/>
  <rect x="1464.82" y="1621.81" width="185.21" height="48.96"/>
  <rect x="1464.82" y="1450.46" width="185.21" height="48.95"/>
  <rect x="1464.82" y="1107.74" width="185.21" height="48.96"/>
  <rect x="1464.82" y="593.68" width="185.21" height="48.96"/>
  <rect x="1464.82" y="936.39" width="185.21" height="48.96"/>
  <rect x="1464.82" y="765.03" width="185.21" height="48.96"/>
  <rect x="1464.82" y="1279.1" width="185.21" height="48.96"/>
  <rect x="1464.82" y="2649.95" width="185.21" height="48.96"/>
  <rect x="1464.82" y="419.06" width="185.21" height="52.22"/>
  <rect x="1464.82" y="2821.31" width="185.21" height="52.22"/>
  <rect x="1464.82" y="2135.88" width="185.21" height="48.95"/>
  <rect x="1464.82" y="2478.6" width="185.21" height="48.95"/>
  <rect x="1464.82" y="1964.52" width="185.21" height="48.96"/>
  <rect x="1464.82" y="2307.24" width="185.21" height="48.96"/>
  <rect x="1156.14" y="1793.17" width="185.21" height="48.96"/>
  <rect x="1156.14" y="1621.81" width="185.21" height="48.96"/>
  <rect x="1156.14" y="1450.46" width="185.21" height="48.95"/>
  <rect x="1156.14" y="1107.74" width="185.21" height="48.96"/>
  <rect x="1156.14" y="936.39" width="185.21" height="48.96"/>
  <rect x="1156.14" y="765.03" width="185.21" height="48.96"/>
  <rect x="1156.14" y="1279.1" width="185.21" height="48.96"/>
  <rect x="1156.14" y="2649.95" width="185.21" height="48.96"/>
  <rect x="1156.14" y="2821.31" width="185.21" height="52.22"/>
  <rect x="1156.14" y="2135.88" width="185.21" height="48.95"/>
  <rect x="1156.14" y="2478.6" width="185.21" height="48.95"/>
  <rect x="1156.14" y="1964.52" width="185.21" height="48.96"/>
  <rect x="1156.14" y="2307.24" width="185.21" height="48.96"/>
  <rect x="847.46" y="1793.17" width="185.21" height="48.96"/>
  <rect x="847.46" y="1621.81" width="185.21" height="48.96"/>
  <rect x="847.46" y="1450.46" width="185.21" height="48.95"/>
  <rect x="847.46" y="1107.74" width="185.21" height="48.96"/>
  <rect x="847.46" y="1279.1" width="185.21" height="48.96"/>
  <rect x="847.46" y="2649.95" width="185.21" height="48.96"/>
  <rect x="847.46" y="2821.31" width="185.21" height="52.22"/>
  <rect x="847.46" y="2135.88" width="185.21" height="48.95"/>
  <rect x="847.46" y="2478.6" width="185.21" height="48.95"/>
  <rect x="847.46" y="1964.52" width="185.21" height="48.96"/>
  <rect x="847.46" y="2307.24" width="185.21" height="48.96"/>
  <rect x="538.78" y="1793.17" width="185.21" height="48.96"/>
  <rect x="538.78" y="1621.81" width="185.21" height="48.96"/>
  <rect x="538.78" y="2649.95" width="185.21" height="48.96"/>
  <rect x="538.78" y="2821.31" width="185.21" height="52.22"/>
  <rect x="538.78" y="2135.88" width="185.21" height="48.95"/>
  <rect x="538.78" y="2478.6" width="185.21" height="48.95"/>
  <rect x="538.78" y="1964.52" width="185.21" height="48.96"/>
  <rect x="538.78" y="2307.24" width="185.21" height="48.96"/>
  <polygon points="149.66 3053.12 149.66 0 119.73 0 119.73 3053.12 0 3053.12 0 3083.06 119.73 3083.06 119.73 3202.79 149.66 3202.79 149.66 3083.06 4549.75 3083.06 4549.75 3053.12 149.66 3053.12"/>
</svg>