<?xml version="1.0" encoding="UTF-8"?>
<svg id="Layer_1" data-name="Layer 1" xmlns="http://www.w3.org/2000/svg" viewBox="0 0 3620.14 3602">
  <path d="m3612.7,1651.58c-1.22-10.34-2.19-20.66-3.05-30.98-9.05-112.43-27.87-215.03-57.55-313.63-10.88-36.27-23.09-72.54-34.92-107.62l-2.75-8.16c-14.58-43.29-28.22-78.05-42.91-109.41-4.51-9.7-9.21-19.34-13.91-28.95-9.7-19.96-19.74-40.56-27.87-61.25-12.72-32.35-28.03-62.14-41.35-86.99-42.67-79.83-97.25-159.15-171.68-249.6-32.03-38.97-66.87-76.43-100.52-112.67l-27.06-29.19c-15.2-16.5-33.57-35.65-54.47-52.72-88.61-72.46-185.32-148.19-292-211.3-62.33-36.89-131.79-72.62-212.3-109.3-74.13-33.73-157.45-61.6-262.24-87.75-31-7.75-63.39-14.58-98.98-20.82-54.18-9.53-108.57-18.04-162.93-26.52l-3.86-.59c-9.7-1.51-19.28-1.65-28.57-1.76l-4.89-.08c-33.25-.59-66.52-1.11-99.79-1.62l-42.75-.68-34.14,1.38c-25.6.08-51.21.11-76.81-.14-37.89-.7-75.67,3.02-112.89,10.21l2.62,13.58-5.86-13.42c-32.44,1.32-64.3,7.21-95.12,12.91l-21.42,3.92c-72.73,12.88-144.43,33.46-211.11,53.74-119.15,36.24-241.55,89.77-374.15,163.61-67.84,37.76-135.44,84.18-219.11,150.54-29.55,23.42-56.07,44.75-81.62,68.57-35.27,32.98-65.98,63.82-93.82,94.28-38.51,42.21-79.45,87.91-118.1,136.14-53.2,66.28-100.14,136.14-139.52,207.66-44.08,80.18-86.26,159.15-117.7,243.85-30.09,80.89-63.68,177.33-84.83,279.41-19.99,96.58-35.3,177.3-35.84,263.64-.11,16.07-1.57,32.62-2.94,48.64l-1.57,18.88c-3.59,46.48-3.16,84.21,1.3,118.75,1.97,15.12,2.94,28.3,3,40.35.19,56.5,8.72,112.38,17.45,164.77,29.44,178.08,78.75,335.24,150.73,480.43,1.89,3.81,3.67,7.67,5.43,11.53,1.89,4.16,3.78,8.29,5.81,12.32l11.99,24.58c21.98,45.16,44.72,91.88,73.43,134.98,7.91,11.88,15.56,23.98,23.2,36.08,12.88,20.42,26.22,41.51,40.83,61.47,25.09,34.24,52.37,67.63,78.73,99.87l10.1,12.4c22.71,27.79,45.1,54.91,69.25,80.86,54.2,58.17,115.62,109.92,176.52,161.23,54.66,45.99,113.46,85.75,163.74,118.59,29.19,19.04,59.77,36.76,89.29,53.88l19.9,11.56c50.75,29.63,105.08,52.99,157.61,75.57,26.03,11.18,52.04,22.39,77.7,34.33,4.62,2.16,9.59,3.7,14.56,5.19,2.24.65,4.51,1.32,6.7,2.08,87.04,30.49,175.79,50.83,266.67,70.68,20.85,4.56,41.91,8.37,63.01,11.75,66.57,10.67,133.39,15.45,195.67,19.01,27.68,1.59,55.55,2.38,83.78,2.38,68.6,0,139.17-4.67,213.71-14.12,56.58-7.21,112.7-19.53,166.98-31.41l5.24-1.16c117.32-25.74,205.14-52.58,284.71-87.04,13.96-6.02,27.82-12.23,41.7-18.45,22.96-10.26,45.94-20.55,69.22-29.95,39.51-15.91,76.54-36.89,112.38-57.17,11.34-6.43,22.66-12.83,34.06-19.09,23.6-12.96,46.24-28.01,68.14-42.56,8.72-5.83,17.47-11.64,26.3-17.34,5.02-3.24,9.67-6.99,14.31-10.78l102.41-81.94c5.4-4.32,10.86-8.53,16.34-12.77,12.64-9.75,25.68-19.82,37.76-31.03,54.96-51.07,104.27-97.5,151.24-148.65,12.94-14.1,25.14-28.79,37.35-43.48l4.29-5.16c13.53-16.34,26.84-32.89,39.92-49.64,75.92-97.2,131.71-181.76,176.09-266.88,6.67-12.83,13.58-26.06,17.34-40.75,3.24-12.72,8.78-24.55,14.61-37.05l11.07-24.14c10.24-22.47,20.5-44.94,29.71-67.84,26.14-64.98,49.04-123.8,64.65-186.05l10.91-43.08c6.78-26.57,13.56-53.15,20.01-79.81,5.67-23.23,11.5-48.15,15.75-73.13,12.86-75.73,18.23-151.13,22.6-221.86,4.62-74.73,3.05-142.79-4.86-208.06Zm-442.83-934.85c26.36,30.54,47.24,56.98,63.6,86.83,4.73,8.62,10.1,16.64,15.93,23.9,39.27,48.69,69.43,102.82,93.77,149.35,4.32,8.26,8.94,16.39,13.56,24.52l7.13,12.67c1.08,1.97,2.27,3.92,3.48,5.89,2.19,3.59,4.27,6.97,5.1,9.88,8.99,31.06,21.85,60.71,34.3,89.37,10.32,23.77,20.98,48.34,29.11,73.11l13.96,43.02c7.26,22.5,14.53,44.99,22.06,67.41,30.68,91.34,44.78,187.64,55.55,270.72,8.43,64.84,16.96,141.54,16.42,218.73-.11,15.91-1.19,31.79-2.24,47.67l-.62,9.45c-.46,7.18-1.11,14.34-1.78,21.52-1.11,12.32-2.24,24.66-2.46,36.97-1.65,87.34-18.74,172.79-36.08,252.87-12.86,59.42-31.27,118.94-49.07,176.52l-3.16,10.24c-7.94,25.74-18.45,51.45-28.63,76.29-3.56,8.7-7.13,17.39-10.59,26.12l-6.62,16.15c-7.21,17.39-14.69,35.41-19.42,54.85-2.35,9.7-7.67,19.34-13.29,29.55-1.89,3.4-3.75,6.81-5.54,10.24-3.75,7.21-7.78,14.29-11.78,21.36-5.62,9.88-11.21,19.74-16.15,29.92-38.4,79.16-89.2,149.97-138.41,214.71-57.52,75.78-122.75,148.35-199.37,221.86-53.55,51.39-104.62,94.04-156.18,130.36l-31.6,22.42c-41.51,29.57-84.45,60.17-128.93,86.53-41.97,24.87-89.12,49.5-148.46,77.54-106.11,50.15-217.49,87.88-330.97,112.11l-26.93,5.83c-54.74,11.96-111.35,24.31-170.39,26.3-50.69,10.34-103.65,10.1-154.64,9.88-16.04-.05-32.03-.16-47.94.11-29.57.43-59.17.19-88.74-.14l-5.94-.05c-27.95-.22-55.23-.86-81.37-6.29-7.37-1.49-14.91-2.32-22.39-3.02-119.18-11.37-241.12-37.22-362.43-76.78l-3.78-1.22c-8.43-2.73-16.85-5.46-25.01-8.86-80.99-33.95-172.76-72.41-256.13-120.1-77.59-44.43-145.59-90.31-207.87-140.3-45.34-36.43-91.23-75.27-136.33-115.45-36.84-32.81-67.46-64.55-93.61-96.98-15.12-18.74-30.49-37.3-45.83-55.85-19.39-23.42-38.78-46.83-57.66-70.62-46.83-58.98-86.85-120.67-118.94-183.35l-18.99-36.65c-27.84-53.61-56.69-109.03-78.29-166.39-37.08-98.31-60.93-175.36-77.29-249.81l-4.78-21.36c-5.94-26.44-12.13-53.8-15.93-80.94-10.53-74.13-20.31-153.86-20.66-234.37-.08-20.85.16-41.67.43-62.49.24-19.63.46-39.24.43-58.88-.14-61.22,7.4-123.37,14.5-176.81,6.64-50.37,18.72-101.25,30.36-150.43l4.4-18.66c21.09-89.8,52.91-183.73,97.23-287.22,12.37-28.9,26.98-58.79,43.37-88.88,34.41-63.06,68.84-120.4,105.27-175.25,71.33-107.46,163.61-212.84,282.11-322.11,37.81-34.87,79.08-66.19,118.02-94.9l15.15-11.21c33.57-24.93,68.3-50.69,105.25-71.06l33.35-18.47c50.72-28.22,103.19-57.42,157.07-81.05,13.02-5.75,26.01-11.48,38.84-17.61,60.39-28.95,128.96-53.69,215.76-77.83,66.76-18.53,138.41-33.43,225.45-46.88,51.69-7.99,104.92-16.2,158.18-16.2,7.56,0,15.15.16,22.71.51,15.96.78,31.98.62,48.05.38l100.41-.43c35.92-.03,76.16,2.54,124.45,8.32,62.01,7.45,127.72,19.23,200.88,36.03,48.83,11.21,104.22,23.9,155.05,44.21,9.05,3.62,18.34,6.48,27.63,9.34l3.48,1.05c45.4,13.96,79.29,27.55,109.81,44.08,13.31,7.24,27.25,13.18,40.73,18.93,12.15,5.19,24.31,10.34,35.97,16.47,90.74,47.75,208.36,113.59,312.96,199.53,39.27,32.22,76.97,66.49,112.05,101.84l4.7,5.02c3.51,3.83,7.05,7.64,11.05,10.96,32.84,27.28,61.04,60.66,88.29,92.93l17.77,20.96c4.78,5.59,9.7,11.05,14.64,16.5,4.51,5,9.02,9.99,13.42,15.1Z"/>
  <path d="m2967.47,1763.69l-.08-.03c-6.59-2.19-14.83-4.94-23.52-5.7-12.64-1.08-25.39-1.22-38.11-1.22l-61.76.14c-33.95.08-67.87.19-101.76-.03-114.43-.78-228.86-1.86-343.26-2.92l-63.52-.49c-12.18,0-23.66.05-34.84-1.43-40.29-5.43-80.97-5.54-120.29-5.62l-23.74-.08c-73.86-.54-147.78-1.22-221.67-2.11-6.45-.05-12.94-.7-19.39-1.4,2.81-3.65,5.67-7.24,8.94-10.42,27.66-27.01,55.5-53.77,83.56-80.32,37.46-35.46,75-70.84,112.51-106.19l61.68-58.12c6.02-5.62,12.02-11.23,17.85-17.04,10.67-10.64,21.23-21.39,31.79-32.11,35.43-36.05,72.05-73.3,112.16-105.19,7.26-5.81,13.85-12.5,20.42-19.23l42.83-42.45c24.39-24.12,48.75-48.21,73.51-71.89,23.82-22.79,47.94-45.26,72.08-67.73,17.04-15.85,34.08-31.71,51.02-47.69,16.45-15.56,32.52-31.54,48.61-47.51l8.18-8.16c4.24-4.19,8.02-8.99,11.48-13.8,8.43-11.59,9.88-26.55,3.94-40.02-6.16-13.96-19.28-23.69-34.27-25.39-13.85-1.54-25.14.65-34.54,6.75-9.07,5.89-20.8,13.94-31.27,23.98-36.89,35.33-73.3,71.06-109.76,106.84-15.5,15.26-30.84,30.73-46.15,46.21-31.11,31.41-63.28,63.93-96.55,93.77-61.39,55.07-121.21,113.54-179.03,170.06-44.86,43.86-91.23,89.18-137.92,132.52-21.52,19.93-42.89,40.02-64.25,60.12-19.66,18.47-39.32,36.95-59.06,55.31-7.7,7.13-16.12,13.56-24.44,19.96l-2.32,1.65c-.73-2.75-1.24-5.7-1.24-8.45-.08-40.38.03-80.78.78-121.13.81-43.1.95-86.21,1.08-129.34.24-87.18.51-177.35,6.86-265.72.7-10.07.73-20.2.76-30.33l3.19-424.5c.14-17.82.16-35.62-.49-53.45-.3-7.62-2.13-14.91-4.24-23.42-3.56-14.1-19.93-25.95-35.11-24.04-15.39,1.62-28.44,12.02-32.17,27.09-1.62,6.43-3.48,13.72-3.89,21.34-2.38,43.94-4.51,87.93-6.45,131.9-1.03,23.96-.76,48.13-.49,71.49.24,20.15.49,40.32-.11,60.52-1.92,65.79-2.13,131.15-2.35,194.34-.08,24.63-.16,48.83-.35,72.46l.03,15.31c.03,7.75.05,13.34-.05,18.93-.41,21.52-.68,43.08-.95,64.63-.65,51.34-1.35,104.44-3.67,156.45-1.84,39.57-3.73,80.45-4,121.86-.32,50.96-.7,101.98-1.46,152.91-.24,13.61-1.65,27.25-2.97,40.32-.59,1.78-3.97,5.19-7.02,5.81-16.56,1.13-33.87,2.05-49.69,2.21-131.96-.3-263.94-.86-395.9-1.51h-5.75c-12.02,0-23.28,0-33.87-1.94-27.9-5.21-55.9-5.64-82.97-6.05l-3.48-.05c-32.68-.51-65.38-.92-98.06-1.3-35.92-.43-71.84-.86-107.78-1.46-14.58-.22-29.14-1.11-43.7-1.97l-42.37-2.59c-18.63-1.22-37.27-2.43-55.93-3-30.11-.89-60.25-1.11-90.39-1.3l-27.39-.22c-17.42-.11-34.95-.3-52.31.68-10.78.62-21.01,4.67-29.28,7.91-14.53,5.81-21.96,24.36-19.53,37.4,3.05,16.18,12.64,23.31,20.12,26.44l2.7,1.16c6.13,2.62,13.1,5.62,20.96,6.54,15.85,1.78,34.65,3.65,53.91,3.89,28.76.38,57.52.51,86.26.68,41.59.19,83.18.41,124.77,1.32,17.91.41,35.76.43,53.77.32,40.81.03,83.02-.11,123.93,5.24l1.81.22,1.81-.22c16.39-2.21,32.98-.43,50.53,1.43,11.96,1.27,24.33,2.57,36.95,2.59,123.69.14,247.36.7,371.05,1.27l104.06.46c7.35.03,14.72.08,22.39.7-7.83,8.24-15.69,16.47-23.93,24.28-16.2,15.34-32.54,30.54-48.88,45.75-30.09,28.01-60.14,56.01-89.5,84.77-71.95,70.49-147,140.25-219.59,207.71l-10.18,9.48c-4.54,4.19-8.97,8.53-13.42,12.88-11.94,11.67-23.23,22.71-36,30.81-15.56,9.88-27.3,22.44-38.67,34.57-5.51,5.89-10.99,11.75-16.91,17.26-15.85,14.69-30.92,30.17-45.99,45.64-22.44,23.06-45.64,46.88-70.89,67.17-5.29,4.24-9.43,9.34-13.04,13.83l-3.05,3.73c-16.47,19.61-36.54,36.16-55.93,52.18-27.09,22.39-52.96,46.24-79.27,70.7-7.21,6.72-11.37,16.45-11.72,27.36-.43,12.94,4.59,26.2,13.37,35.51,15.04,15.96,39.97,18.77,56.66,6.54,8.86-6.48,17.26-13.67,25.44-20.93,17.18-15.26,34.14-30.71,51.04-46.15l24.58-22.36c36.95-33.52,75.16-68.17,110.05-105.49,7.62-8.16,16.12-15.5,24.58-22.87l9.48-8.29c3.4-3.02,6.94-5.94,10.48-8.86,6.18-5.1,12.34-10.21,17.93-15.83,58.82-58.74,120.37-117.35,182.92-174.25,57.28-52.07,114.05-106.49,168.93-159.13,24.23-23.2,48.42-46.42,72.73-69.52l18.74-17.77c20.44-19.42,40.86-38.81,61.44-58.09.51,34.73,1,69.49.68,104.22l-.22,29.98c-.19,38.46-.43,78.24-2.92,117.02-3.59,56.39-4.38,113.59-5.16,168.9l-.46,32.22c-.59,35.92-.62,71.87-.65,107.84-.05,85.48-.14,173.87-8.1,260.29-.35,3.89-.43,7.81-.46,11.64l-.54,44.97c-.54,44.86-1.08,89.72-1.46,134.55-.08,9.05.65,18.63,2.19,28.49,1.81,11.86,8.29,22.09,19.31,30.41,6,4.51,13.37,6.89,20.93,6.89,3.59,0,7.24-.54,10.78-1.65,10.07-3.11,17.66-10.26,20.85-19.69,3.54-10.64,7.05-22.01,7.86-34,1.19-17.53,1.38-35.14,1.54-52.74l.89-61.47c.7-42.51,1.46-86.42.73-129.74-.43-25.6.97-51.8,2.35-77.13,1.81-33.49,3.67-68.11,1.43-102.65-.43-6.45.22-12.99.78-19.53.32-3.46.62-6.94.81-10.4l.78-11.69c.59-8.59,1.19-17.2,1.3-25.79,1.03-96.79,1.89-193.59,2.7-290.38l.62-74.43c.49-59.66.97-119.29,1.62-178.92.11-11.15,1.05-20.39,2.89-28.28.76-3.35,3.11-9.1,10.07-10.1,11.5-1.65,24.55-2.3,39.92-2.27,91.5.49,183,1.08,274.5,1.7l179,1c15.99.03,31.98.03,47.99.16h9.37c10.75-.03,21.04-.11,30.73,1.4,30.65,4.78,61.44,5,91.2,5.24l10.86.08c75.65.7,151.35,1.3,227.02,1.89l27.79.22c41.83.35,83.83.68,125.45.51,12.64-.05,25.93-1.73,39.46-5,13.72-3.24,23.58-14.5,26.36-30.14,2.94-16.66-8.08-35.87-23.52-41.13Z"/>
</svg>