<?xml version="1.0" encoding="UTF-8"?>
<svg id="Layer_2" data-name="Layer 2" xmlns="http://www.w3.org/2000/svg" viewBox="0 0 255.63 255.63">
  <g id="Layer_1-2" data-name="Layer 1">
    <path d="m230.69,112.44c-1.78.37-4.14.18-5.75-.57-7.32-3.39-14.17-4.7-20.66-3.88,8.08-4.53,13.71-12.06,16.02-21.83,1.53-6.48,3.09-12.95,4.64-19.42-3.33,5.67-6.1,11.64-9.03,17.56-1.91,3.86-3.73,7.81-6.17,11.43-5.09,7.55-12.49,10.86-21.53,10.52-5.52-.2-11.04-.37-15.8-.53,3.72-7.41,7.54-15.25,11.59-23,4.34-8.32,11.04-12.27,20.76-12.58-2.41,10.93-7.45,20.53-18.72,26.91,11.87-5.43,20.41-13.4,24.24-25.1,2.59-7.92,8.23-13.56,16.25-17.32,1.75-.82,3.62-1.38,5.44-2.06-8.54,1.11-16.15,4.62-22.75,10.5-1.35,1.21-3.5,2.22-5.26,2.38-8.03.73-14.62,3.01-19.83,6.97,4.73-7.96,5.84-17.3,2.96-26.92-1.91-6.38-3.79-12.76-5.69-19.14-.05,6.57.54,13.13.96,19.72.28,4.3.67,8.63.37,12.98-.63,9.08-5.39,15.65-13.38,19.88-4.88,2.58-9.75,5.2-13.95,7.44-.48-8.28-1.09-16.97-1.46-25.71-.4-9.37,3.43-16.15,11.69-21.27,3.38,10.67,3.82,21.5-2.76,32.67,7.56-10.64,10.98-21.81,8.44-33.86-1.72-8.15.35-15.86,5.41-23.13,1.11-1.59,2.45-3.01,3.68-4.51-6.84,5.23-11.68,12.07-14.45,20.46-.57,1.72-1.92,3.67-3.36,4.69-6.59,4.65-11.16,9.92-13.69,15.95.12-9.26-3.59-17.9-10.9-24.79-4.84-4.57-9.67-9.16-14.5-13.73,3.24,5.72,7.03,11.1,10.69,16.6,2.39,3.59,4.9,7.14,6.81,11.06,3.99,8.18,3.16,16.25-1.65,23.91-2.94,4.68-5.84,9.38-8.36,13.42-4.56-6.93-9.43-14.15-14.12-21.53-5.03-7.92-5.1-15.7-.51-24.27,8.26,7.55,14.06,16.72,13.95,29.67,1.23-13-1.39-24.37-9.62-33.54-5.57-6.2-7.63-13.91-6.88-22.73.17-1.93.61-3.83.93-5.74-3.31,7.95-4.08,16.29-2.28,24.95.37,1.78.18,4.14-.57,5.74-3.39,7.32-4.71,14.17-3.88,20.66-4.53-8.08-12.06-13.71-21.83-16.02-6.48-1.53-12.95-3.09-19.42-4.64,5.67,3.33,11.64,6.1,17.56,9.03,3.86,1.91,7.81,3.73,11.43,6.17,7.55,5.09,10.86,12.49,10.52,21.53-.2,5.52-.37,11.04-.53,15.8-7.41-3.72-15.25-7.54-23-11.59-8.32-4.34-12.27-11.05-12.58-20.76,10.93,2.41,20.53,7.45,26.91,18.72-5.43-11.87-13.39-20.41-25.1-24.23-7.92-2.59-13.56-8.23-17.32-16.25-.82-1.75-1.38-3.62-2.06-5.44,1.11,8.54,4.62,16.15,10.5,22.75,1.21,1.35,2.22,3.5,2.38,5.26.73,8.03,3.01,14.62,6.97,19.83-7.96-4.73-17.3-5.84-26.92-2.96-6.38,1.91-12.76,3.79-19.14,5.69,6.57.05,13.13-.54,19.72-.96,4.3-.27,8.63-.67,12.98-.37,9.08.63,15.65,5.39,19.88,13.38,2.58,4.88,5.2,9.75,7.45,13.95-8.28.48-16.97,1.09-25.71,1.46-9.38.4-16.15-3.43-21.27-11.69,10.67-3.38,21.5-3.82,32.67,2.76-10.64-7.56-21.81-10.98-33.86-8.44-8.15,1.72-15.87-.35-23.13-5.41-1.59-1.11-3.01-2.45-4.51-3.68,5.23,6.84,12.07,11.68,20.46,14.45,1.72.57,3.67,1.92,4.69,3.36,4.65,6.59,9.92,11.16,15.95,13.69-9.26-.12-17.9,3.59-24.79,10.9-4.57,4.84-9.16,9.67-13.73,14.5,5.72-3.24,11.1-7.03,16.6-10.69,3.59-2.39,7.14-4.9,11.06-6.81,8.18-3.99,16.25-3.16,23.91,1.65,4.68,2.94,9.38,5.84,13.42,8.36-6.93,4.56-14.16,9.43-21.53,14.12-7.92,5.03-15.7,5.1-24.27.51,7.55-8.26,16.72-14.06,29.67-13.95-13-1.23-24.38,1.4-33.54,9.62-6.2,5.57-13.91,7.63-22.73,6.88-1.93-.16-3.83-.61-5.74-.93,7.95,3.31,16.29,4.08,24.95,2.28,1.78-.37,4.14-.18,5.74.57,7.32,3.39,14.17,4.71,20.66,3.88-8.08,4.53-13.71,12.06-16.02,21.83-1.53,6.48-3.09,12.95-4.64,19.42,3.33-5.67,6.1-11.64,9.03-17.56,1.91-3.86,3.73-7.81,6.17-11.43,5.09-7.55,12.49-10.86,21.53-10.52,5.52.2,11.04.37,15.8.53-3.72,7.41-7.54,15.25-11.59,23-4.34,8.32-11.05,12.27-20.76,12.58,2.41-10.93,7.45-20.53,18.72-26.91-11.87,5.43-20.41,13.4-24.23,25.1-2.59,7.92-8.24,13.56-16.25,17.32-1.75.82-3.62,1.38-5.44,2.06,8.54-1.11,16.15-4.62,22.75-10.5,1.35-1.21,3.5-2.22,5.26-2.38,8.03-.73,14.62-3.01,19.83-6.97-4.73,7.96-5.84,17.3-2.96,26.92,1.91,6.38,3.79,12.76,5.69,19.14.05-6.57-.54-13.13-.96-19.72-.27-4.3-.67-8.63-.37-12.98.63-9.08,5.39-15.65,13.38-19.88,4.88-2.58,9.75-5.2,13.95-7.45.48,8.28,1.09,16.97,1.46,25.71.4,9.37-3.43,16.15-11.69,21.27-3.38-10.67-3.82-21.5,2.76-32.67-7.56,10.64-10.98,21.81-8.44,33.86,1.72,8.15-.35,15.86-5.41,23.13-1.11,1.59-2.45,3.01-3.68,4.51,6.84-5.23,11.68-12.07,14.45-20.46.57-1.72,1.92-3.67,3.36-4.69,6.59-4.65,11.16-9.92,13.69-15.95-.12,9.26,3.59,17.9,10.9,24.79,4.84,4.57,9.67,9.16,14.5,13.73-3.25-5.72-7.03-11.1-10.69-16.6-2.39-3.59-4.9-7.14-6.81-11.06-3.99-8.18-3.16-16.25,1.65-23.91,2.94-4.68,5.84-9.38,8.36-13.42,4.56,6.93,9.43,14.15,14.12,21.53,5.03,7.92,5.1,15.7.51,24.27-8.26-7.55-14.06-16.72-13.95-29.67-1.23,13,1.4,24.37,9.62,33.54,5.57,6.2,7.63,13.91,6.88,22.73-.16,1.93-.61,3.83-.93,5.74,3.31-7.95,4.08-16.29,2.28-24.95-.37-1.78-.18-4.14.57-5.74,3.39-7.32,4.7-14.17,3.88-20.66,4.53,8.08,12.06,13.71,21.83,16.02,6.48,1.53,12.95,3.09,19.42,4.64-5.67-3.33-11.64-6.1-17.56-9.03-3.86-1.91-7.81-3.73-11.43-6.17-7.55-5.09-10.86-12.49-10.52-21.53.2-5.52.37-11.04.53-15.8,7.41,3.72,15.25,7.54,23,11.59,8.32,4.34,12.27,11.05,12.58,20.76-10.93-2.41-20.53-7.45-26.91-18.72,5.43,11.87,13.4,20.41,25.1,24.23,7.92,2.59,13.56,8.24,17.32,16.25.82,1.75,1.38,3.62,2.06,5.44-1.11-8.54-4.62-16.15-10.5-22.75-1.21-1.35-2.22-3.5-2.38-5.26-.73-8.03-3.01-14.62-6.97-19.83,7.96,4.73,17.3,5.84,26.92,2.96,6.38-1.91,12.76-3.79,19.14-5.69-6.57-.05-13.13.54-19.72.96-4.3.27-8.63.67-12.98.37-9.08-.63-15.65-5.39-19.88-13.38-2.58-4.88-5.2-9.75-7.44-13.95,8.28-.48,16.97-1.09,25.71-1.46,9.37-.4,16.15,3.43,21.27,11.69-10.67,3.38-21.5,3.82-32.67-2.76,10.64,7.56,21.81,10.98,33.86,8.44,8.15-1.72,15.86.35,23.13,5.41,1.59,1.11,3.01,2.45,4.51,3.68-5.23-6.84-12.07-11.68-20.46-14.45-1.72-.57-3.67-1.92-4.69-3.36-4.65-6.59-9.92-11.16-15.95-13.69,9.26.12,17.9-3.59,24.79-10.9,4.57-4.84,9.16-9.67,13.73-14.5-5.72,3.24-11.1,7.03-16.6,10.69-3.59,2.39-7.14,4.9-11.06,6.81-8.18,3.99-16.25,3.16-23.91-1.65-4.68-2.94-9.38-5.84-13.42-8.36,6.93-4.56,14.16-9.43,21.53-14.12,7.92-5.03,15.7-5.1,24.27-.51-7.55,8.26-16.72,14.06-29.67,13.95,13,1.23,24.37-1.4,33.54-9.62,6.2-5.57,13.91-7.63,22.74-6.88,1.93.16,3.83.61,5.74.93-7.95-3.31-16.29-4.08-24.95-2.28Zm-74.54,16.3c5.62,2.64,10.75,4.87,15.67,7.41,5.08,2.62,9.83,5.74,14.95,8.3,1.63.82,3.27,1.52,4.9,2.11-2.18.02-4.42.21-6.77.62-11,1.93-21.82,2.73-33.01-4.4,3.55,5.1,6.87,9.6,9.86,14.26,3.09,4.81,5.65,9.89,8.8,14.67,1.01,1.53,2.08,2.95,3.19,4.28-1.89-1.07-3.93-2.03-6.17-2.85-10.49-3.83-20.26-8.55-26.39-20.32.52,6.19,1.15,11.75,1.41,17.28.27,5.71-.06,11.39.28,17.1.11,1.84.34,3.61.65,5.34-1.11-1.89-2.4-3.75-3.94-5.59-7.17-8.56-13.28-17.54-12.69-30.79-2.64,5.62-4.88,10.75-7.42,15.67-2.62,5.08-5.74,9.83-8.3,14.95-.82,1.64-1.52,3.27-2.11,4.9-.02-2.18-.21-4.42-.62-6.77-1.93-11-2.73-21.82,4.4-33.01-5.1,3.55-9.6,6.87-14.25,9.86-4.81,3.09-9.89,5.65-14.67,8.8-1.53,1.01-2.95,2.08-4.28,3.19,1.07-1.89,2.03-3.94,2.85-6.17,3.83-10.49,8.55-20.26,20.32-26.39-6.19.52-11.75,1.15-17.28,1.41-5.71.27-11.39-.06-17.1.28-1.84.11-3.62.34-5.34.65,1.89-1.11,3.75-2.4,5.59-3.94,8.56-7.17,17.54-13.27,30.79-12.69-5.62-2.64-10.75-4.87-15.67-7.41-5.08-2.62-9.83-5.74-14.95-8.3-1.63-.82-3.27-1.52-4.9-2.11,2.17-.02,4.42-.21,6.77-.62,11-1.93,21.82-2.73,33.01,4.4-3.55-5.1-6.87-9.6-9.86-14.26-3.09-4.81-5.65-9.89-8.8-14.67-1.01-1.53-2.08-2.95-3.19-4.28,1.89,1.07,3.94,2.03,6.17,2.85,10.49,3.83,20.26,8.55,26.39,20.32-.52-6.19-1.15-11.75-1.41-17.28-.27-5.71.06-11.39-.28-17.1-.11-1.84-.34-3.61-.65-5.34,1.11,1.89,2.4,3.75,3.94,5.59,7.17,8.56,13.27,17.54,12.69,30.79,2.64-5.62,4.87-10.75,7.41-15.67,2.62-5.08,5.74-9.83,8.3-14.95.82-1.63,1.52-3.27,2.11-4.9.02,2.18.21,4.42.62,6.77,1.93,11,2.73,21.82-4.4,33.01,5.1-3.55,9.6-6.87,14.26-9.86,4.81-3.09,9.89-5.65,14.67-8.8,1.53-1.01,2.95-2.08,4.28-3.19-1.07,1.89-2.03,3.93-2.85,6.17-3.83,10.49-8.55,20.26-20.32,26.39,6.19-.52,11.75-1.15,17.28-1.41,5.71-.27,11.39.06,17.1-.28,1.84-.11,3.62-.34,5.34-.65-1.89,1.11-3.75,2.4-5.59,3.94-8.56,7.17-17.54,13.28-30.79,12.69Z"/>
  </g>
</svg>