<?xml version="1.0" encoding="UTF-8"?>
<svg id="Layer_2" data-name="Layer 2" xmlns="http://www.w3.org/2000/svg" viewBox="0 0 200 200">
  <g id="Layer_1-2" data-name="Layer 1">
    <polygon points="200 98.95 133.38 98.95 199.87 94.77 199.74 92.67 133.25 96.86 199.34 88.51 199.08 86.42 133.01 94.77 198.42 82.29 198.03 80.23 132.59 92.71 197.12 76.15 196.6 74.11 132.07 90.68 195.43 70.09 194.78 68.1 131.42 88.68 193.36 64.16 192.59 62.21 130.65 86.73 190.93 58.37 190.04 56.47 129.77 84.83 188.14 52.74 187.12 50.9 128.77 82.98 184.99 47.3 183.87 45.53 127.6 81.24 181.52 42.07 180.28 40.37 126.38 79.53 177.72 37.07 176.38 35.45 125.05 77.91 173.61 32.31 172.18 30.78 123.59 76.41 169.22 27.82 167.69 26.38 122.09 74.95 164.55 23.62 162.93 22.28 120.48 73.6 159.63 19.72 157.93 18.48 118.77 72.38 154.47 16.13 152.7 15.01 116.99 71.27 149.09 12.87 147.25 11.86 115.17 70.22 143.53 9.96 141.63 9.07 113.26 69.36 137.79 7.41 135.84 6.64 111.31 68.57 131.9 5.22 129.9 4.57 109.32 67.92 125.88 3.4 123.85 2.88 107.29 67.38 119.77 1.97 117.71 1.57 105.22 67.02 113.57 .92 111.49 .66 103.14 66.74 107.32 .26 105.23 .13 101.05 66.59 101.05 0 98.95 0 98.95 66.62 94.77 .13 92.67 .26 96.86 66.74 88.51 .66 86.42 .92 94.77 66.99 82.29 1.57 80.23 1.97 92.72 67.41 76.15 2.88 74.11 3.4 90.68 67.92 70.09 4.57 68.1 5.22 88.68 68.57 64.16 6.64 62.21 7.41 86.74 69.36 58.37 9.07 56.47 9.96 84.83 70.22 52.74 11.86 50.9 12.87 82.99 71.24 47.3 15.01 45.53 16.13 81.24 72.4 42.07 18.48 40.37 19.72 79.52 73.59 37.07 22.28 35.45 23.62 77.92 74.96 32.31 26.38 30.78 27.82 76.41 76.41 27.82 30.78 26.38 32.31 74.95 77.91 23.62 35.45 22.28 37.07 73.6 79.52 19.72 40.37 18.48 42.07 72.4 81.24 16.13 45.53 15.01 47.3 71.24 82.99 12.87 50.9 11.86 52.74 70.22 84.83 9.96 56.47 9.07 58.37 69.36 86.74 7.41 62.21 6.64 64.16 68.57 88.68 5.22 68.1 4.57 70.09 67.92 90.68 3.4 74.11 2.88 76.15 67.41 92.72 1.97 80.23 1.57 82.29 66.99 94.77 .92 86.42 .66 88.51 66.74 96.86 .26 92.67 .13 94.77 66.62 98.95 0 98.95 0 101.05 66.59 101.05 .13 105.23 .26 107.32 66.74 103.14 .66 111.49 .92 113.57 67.02 105.22 1.57 117.71 1.97 119.77 67.38 107.29 2.88 123.85 3.4 125.88 67.92 109.32 4.57 129.9 5.22 131.9 68.57 111.31 6.64 135.84 7.41 137.79 69.36 113.26 9.07 141.63 9.96 143.53 70.22 115.17 11.86 147.25 12.87 149.09 71.27 116.99 15.01 152.7 16.13 154.47 72.38 118.77 18.48 157.93 19.72 159.63 73.59 120.48 22.28 162.93 23.62 164.55 74.96 122.07 26.38 167.69 27.82 169.22 76.41 123.59 30.78 172.18 32.31 173.61 77.92 125.04 35.45 176.38 37.07 177.72 79.53 126.39 40.37 180.28 42.07 181.52 81.24 127.6 45.53 183.87 47.3 184.99 82.98 128.77 50.9 187.12 52.74 188.14 84.83 129.77 56.47 190.04 58.37 190.93 86.73 130.65 62.21 192.59 64.16 193.36 88.68 131.42 68.1 194.78 70.09 195.43 90.68 132.07 74.11 196.6 76.15 197.12 92.71 132.59 80.23 198.03 82.29 198.42 94.77 133.01 86.42 199.08 88.51 199.34 96.86 133.25 92.67 199.74 94.77 199.87 98.95 133.38 98.95 200 101.05 200 101.05 133.41 105.23 199.87 107.32 199.74 103.14 133.25 111.49 199.34 113.57 199.08 105.22 132.98 117.71 198.42 119.77 198.03 107.29 132.62 123.85 197.12 125.88 196.6 109.32 132.07 129.9 195.43 131.9 194.78 111.31 131.42 135.84 193.36 137.79 192.59 113.26 130.65 141.63 190.93 143.53 190.04 115.17 129.77 147.25 188.14 149.09 187.12 117 128.75 152.7 184.99 154.47 183.87 118.77 127.62 157.93 181.52 159.63 180.28 120.46 126.38 162.93 177.72 164.55 176.38 122.09 125.05 167.69 173.61 169.22 172.18 123.59 123.59 172.18 169.22 173.61 167.69 125.04 122.07 176.38 164.55 177.72 162.93 126.39 120.47 180.28 159.63 181.52 157.93 127.62 118.77 183.87 154.47 184.99 152.7 128.75 117 187.12 149.09 188.14 147.25 129.77 115.17 190.04 143.53 190.93 141.63 130.65 113.26 192.59 137.79 193.36 135.84 131.42 111.31 194.78 131.9 195.43 129.9 132.07 109.32 196.6 125.88 197.12 123.85 132.62 107.29 198.03 119.77 198.42 117.71 132.98 105.22 199.08 113.57 199.34 111.49 133.25 103.14 199.74 107.32 199.87 105.23 133.41 101.05 200 101.05 200 98.95"/>
  </g>
</svg>