<?xml version="1.0" encoding="UTF-8"?>
<svg id="Layer_1" data-name="Layer 1" xmlns="http://www.w3.org/2000/svg" viewBox="0 0 3700 3699.95">
  <path d="m1145.21,1045.94l510.74-915.24c98.21-175.99,352.16-173.8,447.32,3.86l473.91,884.76c23.7,44.24,59.92,80.5,104.14,104.24l884.33,474.73c177.57,95.32,179.52,349.28,3.44,447.33l-915.71,509.89c-41.37,23.04-75.51,57.15-98.59,98.5l-510.74,915.24c-98.21,175.99-352.16,173.8-447.32-3.86l-473.91-884.76c-23.7-44.24-59.92-80.5-104.14-104.24l-884.33-474.73c-177.57-95.32-179.52-349.28-3.44-447.33l915.71-509.89c41.37-23.04,75.51-57.15,98.59-98.5Z"/>
</svg>