<?xml version="1.0" encoding="UTF-8"?>
<svg id="Layer_2" data-name="Layer 2" xmlns="http://www.w3.org/2000/svg" viewBox="0 0 157.75 157.75">
  <g id="Layer_1-2" data-name="Layer 1">
    <path d="m144.77,65.89h-34.54l24.42-24.42c5.07-5.07,5.07-13.29,0-18.37-5.07-5.07-13.29-5.07-18.37,0l-24.42,24.42V12.99c0-7.17-5.81-12.99-12.99-12.99s-12.99,5.81-12.99,12.99v34.54l-24.42-24.42c-5.07-5.07-13.29-5.07-18.37,0-5.07,5.07-5.07,13.29,0,18.37l24.42,24.42H12.99c-7.17,0-12.99,5.81-12.99,12.99s5.81,12.99,12.99,12.99h34.54l-24.42,24.42c-5.07,5.07-5.07,13.29,0,18.37,5.07,5.07,13.29,5.07,18.37,0l24.42-24.42v34.54c0,7.17,5.81,12.99,12.99,12.99s12.99-5.81,12.99-12.99v-34.54l24.42,24.42c5.07,5.07,13.29,5.07,18.37,0,5.07-5.07,5.07-13.29,0-18.37l-24.42-24.42h34.54c7.17,0,12.99-5.81,12.99-12.99s-5.81-12.99-12.99-12.99Z"/>
  </g>
</svg>