<?xml version="1.0" encoding="UTF-8"?>
<svg id="Layer_2" data-name="Layer 2" xmlns="http://www.w3.org/2000/svg" viewBox="0 0 200 200">
  <g id="Layer_1-2" data-name="Layer 1">
    <g>
      <path d="m100,200C44.86,200,0,155.14,0,100S44.86,0,100,0s100,44.86,100,100-44.86,100-100,100Zm0-197.65C46.15,2.35,2.35,46.15,2.35,100s43.81,97.65,97.65,97.65,97.65-43.81,97.65-97.65S153.85,2.35,100,2.35Z"/>
      <path d="m100,200c-51.86,0-94.05-42.19-94.05-94.05S48.14,11.91,100,11.91s94.05,42.19,94.05,94.05-42.19,94.05-94.05,94.05Zm0-185.75C49.44,14.25,8.3,55.39,8.3,105.95s41.14,91.7,91.7,91.7,91.7-41.14,91.7-91.7S150.56,14.25,100,14.25Z"/>
      <path d="m100,200c-48.57,0-88.09-39.52-88.09-88.09S51.43,23.82,100,23.82s88.09,39.52,88.09,88.09-39.52,88.09-88.09,88.09Zm0-173.84c-47.28,0-85.74,38.47-85.74,85.75s38.46,85.75,85.74,85.75,85.74-38.47,85.74-85.75S147.28,26.16,100,26.16Z"/>
      <path d="m100,200c-45.29,0-82.14-36.85-82.14-82.14S54.71,35.72,100,35.72s82.14,36.85,82.14,82.14-36.85,82.14-82.14,82.14Zm0-161.93c-44,0-79.79,35.79-79.79,79.79s35.8,79.79,79.79,79.79,79.79-35.8,79.79-79.79-35.8-79.79-79.79-79.79Z"/>
      <path d="m100,200c-42.01,0-76.18-34.18-76.18-76.18S57.99,47.63,100,47.63s76.18,34.18,76.18,76.18-34.18,76.18-76.18,76.18Zm0-150.02c-40.71,0-73.84,33.12-73.84,73.84s33.12,73.84,73.84,73.84,73.84-33.12,73.84-73.84-33.12-73.84-73.84-73.84Z"/>
      <path d="m100,200c-38.73,0-70.23-31.51-70.23-70.23S61.27,59.54,100,59.54s70.23,31.51,70.23,70.23-31.51,70.23-70.23,70.23Zm0-138.12c-37.43,0-67.88,30.45-67.88,67.88s30.45,67.88,67.88,67.88,67.88-30.45,67.88-67.88-30.45-67.88-67.88-67.88Z"/>
      <path d="m100,200c-35.44,0-64.28-28.83-64.28-64.28s28.83-64.28,64.28-64.28,64.28,28.83,64.28,64.28-28.83,64.28-64.28,64.28Zm0-126.21c-34.15,0-61.93,27.78-61.93,61.93s27.78,61.93,61.93,61.93,61.93-27.78,61.93-61.93-27.78-61.93-61.93-61.93Z"/>
      <path d="m100,200c-32.16,0-58.32-26.16-58.32-58.32s26.16-58.32,58.32-58.32,58.32,26.16,58.32,58.32-26.16,58.32-58.32,58.32Zm0-114.3c-30.87,0-55.98,25.11-55.98,55.98s25.11,55.98,55.98,55.98,55.98-25.11,55.98-55.98-25.11-55.98-55.98-55.98Z"/>
      <path d="m100,200c-28.88,0-52.37-23.49-52.37-52.37s23.49-52.37,52.37-52.37,52.37,23.49,52.37,52.37-23.49,52.37-52.37,52.37Zm0-102.39c-27.58,0-50.02,22.44-50.02,50.02s22.44,50.02,50.02,50.02,50.02-22.44,50.02-50.02-22.44-50.02-50.02-50.02Z"/>
      <path d="m100,200c-25.59,0-46.42-20.82-46.42-46.42s20.82-46.41,46.42-46.41,46.42,20.82,46.42,46.41-20.82,46.42-46.42,46.42Zm0-90.48c-24.3,0-44.07,19.77-44.07,44.07s19.77,44.07,44.07,44.07,44.07-19.77,44.07-44.07-19.77-44.07-44.07-44.07Z"/>
      <path d="m100,200c-22.31,0-40.46-18.15-40.46-40.46s18.15-40.46,40.46-40.46,40.46,18.15,40.46,40.46-18.15,40.46-40.46,40.46Zm0-78.58c-21.02,0-38.11,17.1-38.11,38.12s17.1,38.12,38.11,38.12,38.11-17.1,38.11-38.12-17.1-38.12-38.11-38.12Z"/>
      <path d="m100,200c-19.03,0-34.51-15.48-34.51-34.51s15.48-34.51,34.51-34.51,34.51,15.48,34.51,34.51-15.48,34.51-34.51,34.51Zm0-66.67c-17.73,0-32.16,14.43-32.16,32.16s14.43,32.16,32.16,32.16,32.16-14.43,32.16-32.16-14.43-32.16-32.16-32.16Z"/>
      <path d="m100,200c-15.74,0-28.55-12.81-28.55-28.55s12.81-28.55,28.55-28.55,28.55,12.81,28.55,28.55-12.81,28.55-28.55,28.55Zm0-54.76c-14.45,0-26.21,11.76-26.21,26.21s11.76,26.21,26.21,26.21,26.21-11.76,26.21-26.21-11.76-26.21-26.21-26.21Z"/>
    </g>
  </g>
</svg>