<?xml version="1.0" encoding="UTF-8"?>
<svg id="Layer_1" data-name="Layer 1" xmlns="http://www.w3.org/2000/svg" viewBox="0 0 4292 946.13">
  <path d="m0,473.06c525.08,0,983.46,33.24,1344.99,51.82,188.72,9.7,300.59,220.86,300.59,421.24,0-162.49,59.16-358.65,206.75-390.98h0c42.37-8.55,86.98,1.27,120.21,28.91,98.44,81.88,163.7,202.26,172.45,338.09.09,1.37,1.92,1.37,2.01,0,8.75-135.82,74-256.2,172.43-338.07,33.23-27.65,77.85-37.47,120.22-28.93h0c147.59,32.33,206.75,228.49,206.75,390.98,0-200.38,112.53-383.49,300.59-401.99,384.55-37.83,819.92-71.07,1345-71.07-525.08,0-979.7-24.5-1344.99-51.82-188.44-14.09-300.59-220.86-300.59-421.24,0,162.49-59.15,358.7-206.75,390.98h0c-42.4,8.54-87.04-1.3-120.29-28.97-98.39-81.89-163.62-202.24-172.37-338.03-.09-1.37-1.92-1.37-2.01,0-8.74,135.8-73.98,256.16-172.39,338.05-33.24,27.66-77.87,37.5-120.27,28.96h0c-147.6-32.28-206.75-228.49-206.75-390.98,0,200.37-112.16,407-300.58,421.24-361.55,27.32-819.92,51.82-1345.01,51.82Z"/>
</svg>