<?xml version="1.0" encoding="UTF-8"?>
<svg id="Layer_1" data-name="Layer 1" xmlns="http://www.w3.org/2000/svg" viewBox="0 0 4108.54 1227.91">
  <path d="m110.44,0C49.45,0,0,47.39,0,105.85s49.45,105.85,110.44,105.85,110.44-47.39,110.44-105.85S171.44,0,110.44,0Z"/>
  <path d="m470.56,6.42c-57.3,0-103.75,44.52-103.75,99.44s46.45,99.44,103.75,99.44,103.75-44.52,103.75-99.44S527.86,6.42,470.56,6.42Z"/>
  <path d="m830.68,12.83c-53.6,0-97.06,41.65-97.06,93.02s43.45,93.03,97.06,93.03,97.06-41.65,97.06-93.03-43.45-93.02-97.06-93.02Z"/>
  <path d="m1190.79,19.25c-49.9,0-90.36,38.78-90.36,86.61s40.46,86.61,90.36,86.61,90.36-38.78,90.36-86.61-40.46-86.61-90.36-86.61Z"/>
  <ellipse cx="1550.91" cy="105.85" rx="83.67" ry="80.19"/>
  <path d="m1911.03,32.08c-42.51,0-76.98,33.03-76.98,73.78s34.47,73.78,76.98,73.78,76.98-33.03,76.98-73.78-34.46-73.78-76.98-73.78Z"/>
  <path d="m2271.14,38.49c-38.82,0-70.28,30.16-70.28,67.36s31.47,67.36,70.28,67.36,70.28-30.16,70.28-67.36-31.46-67.36-70.28-67.36Z"/>
  <ellipse cx="2631.26" cy="105.85" rx="63.59" ry="60.95"/>
  <path d="m2991.38,51.32c-31.42,0-56.89,24.41-56.89,54.53s25.47,54.53,56.89,54.53,56.9-24.41,56.9-54.53-25.47-54.53-56.9-54.53Z"/>
  <path d="m3351.5,57.74c-27.73,0-50.2,21.54-50.2,48.12s22.48,48.12,50.2,48.12,50.2-21.54,50.2-48.12-22.48-48.12-50.2-48.12Z"/>
  <path d="m3711.61,64.15c-24.03,0-43.51,18.67-43.51,41.7s19.48,41.7,43.51,41.7,43.51-18.67,43.51-41.7-19.48-41.7-43.51-41.7Z"/>
  <path d="m4071.73,141.14c20.33,0,36.81-15.8,36.81-35.28s-16.48-35.29-36.81-35.29-36.82,15.8-36.82,35.29,16.48,35.28,36.82,35.28Z"/>
  <path d="m110.44,254.05C49.45,254.05,0,301.44,0,359.9s49.45,105.85,110.44,105.85,110.44-47.39,110.44-105.85-49.45-105.85-110.44-105.85Z"/>
  <path d="m470.56,260.47c-57.3,0-103.75,44.52-103.75,99.44s46.45,99.44,103.75,99.44,103.75-44.52,103.75-99.44-46.45-99.44-103.75-99.44Z"/>
  <path d="m830.68,266.88c-53.6,0-97.06,41.65-97.06,93.02s43.45,93.03,97.06,93.03,97.06-41.65,97.06-93.03-43.45-93.02-97.06-93.02Z"/>
  <path d="m1190.79,273.3c-49.9,0-90.36,38.78-90.36,86.61s40.46,86.61,90.36,86.61,90.36-38.78,90.36-86.61-40.46-86.61-90.36-86.61Z"/>
  <path d="m1550.91,279.71c-46.21,0-83.67,35.9-83.67,80.19s37.46,80.19,83.67,80.19,83.67-35.9,83.67-80.19-37.46-80.19-83.67-80.19Z"/>
  <path d="m1911.03,286.13c-42.51,0-76.98,33.03-76.98,73.78s34.47,73.78,76.98,73.78,76.98-33.03,76.98-73.78-34.46-73.78-76.98-73.78Z"/>
  <path d="m2271.14,292.54c-38.82,0-70.28,30.16-70.28,67.36s31.47,67.36,70.28,67.36,70.28-30.16,70.28-67.36-31.46-67.36-70.28-67.36Z"/>
  <path d="m2631.26,298.96c-35.12,0-63.59,27.29-63.59,60.95s28.47,60.95,63.59,60.95,63.59-27.29,63.59-60.95-28.47-60.95-63.59-60.95Z"/>
  <path d="m2991.38,305.37c-31.42,0-56.89,24.41-56.89,54.53s25.47,54.53,56.89,54.53,56.9-24.41,56.9-54.53-25.47-54.53-56.9-54.53Z"/>
  <path d="m3351.5,311.79c-27.73,0-50.2,21.54-50.2,48.12s22.48,48.12,50.2,48.12,50.2-21.54,50.2-48.12-22.48-48.12-50.2-48.12Z"/>
  <path d="m3711.61,318.2c-24.03,0-43.51,18.67-43.51,41.7s19.48,41.7,43.51,41.7,43.51-18.67,43.51-41.7-19.48-41.7-43.51-41.7Z"/>
  <path d="m4071.73,324.62c-20.33,0-36.82,15.8-36.82,35.28s16.48,35.28,36.82,35.28,36.81-15.8,36.81-35.28-16.48-35.28-36.81-35.28Z"/>
  <path d="m110.44,508.1c-61,0-110.44,47.39-110.44,105.85s49.45,105.85,110.44,105.85,110.44-47.39,110.44-105.85-49.45-105.85-110.44-105.85Z"/>
  <path d="m470.56,514.52c-57.3,0-103.75,44.52-103.75,99.44s46.45,99.44,103.75,99.44,103.75-44.52,103.75-99.44-46.45-99.44-103.75-99.44Z"/>
  <ellipse cx="830.68" cy="613.96" rx="97.06" ry="93.02"/>
  <path d="m1190.79,527.35c-49.9,0-90.36,38.78-90.36,86.61s40.46,86.61,90.36,86.61,90.36-38.78,90.36-86.61-40.46-86.61-90.36-86.61Z"/>
  <path d="m1550.91,533.76c-46.21,0-83.67,35.9-83.67,80.19s37.46,80.19,83.67,80.19,83.67-35.9,83.67-80.19-37.46-80.19-83.67-80.19Z"/>
  <path d="m1911.03,540.18c-42.51,0-76.98,33.03-76.98,73.78s34.47,73.78,76.98,73.78,76.98-33.03,76.98-73.78-34.46-73.78-76.98-73.78Z"/>
  <path d="m2271.14,546.59c-38.82,0-70.28,30.16-70.28,67.36s31.47,67.36,70.28,67.36,70.28-30.16,70.28-67.36-31.46-67.36-70.28-67.36Z"/>
  <path d="m2631.26,553.01c-35.12,0-63.59,27.29-63.59,60.95s28.47,60.95,63.59,60.95,63.59-27.29,63.59-60.95-28.47-60.95-63.59-60.95Z"/>
  <path d="m2991.38,559.42c-31.42,0-56.89,24.41-56.89,54.53s25.47,54.53,56.89,54.53,56.9-24.41,56.9-54.53-25.47-54.53-56.9-54.53Z"/>
  <path d="m3351.5,565.84c-27.73,0-50.2,21.54-50.2,48.12s22.48,48.11,50.2,48.11,50.2-21.54,50.2-48.11-22.48-48.12-50.2-48.12Z"/>
  <path d="m3711.61,572.25c-24.03,0-43.51,18.67-43.51,41.7s19.48,41.7,43.51,41.7,43.51-18.67,43.51-41.7-19.48-41.7-43.51-41.7Z"/>
  <path d="m4071.73,578.67c-20.33,0-36.82,15.8-36.82,35.29s16.48,35.28,36.82,35.28,36.81-15.8,36.81-35.28-16.48-35.29-36.81-35.29Z"/>
  <path d="m110.44,762.15c-61,0-110.44,47.39-110.44,105.85s49.45,105.85,110.44,105.85,110.44-47.39,110.44-105.85-49.45-105.85-110.44-105.85Z"/>
  <path d="m470.56,768.57c-57.3,0-103.75,44.52-103.75,99.44s46.45,99.44,103.75,99.44,103.75-44.52,103.75-99.44-46.45-99.44-103.75-99.44Z"/>
  <path d="m830.68,774.98c-53.6,0-97.06,41.65-97.06,93.02s43.45,93.03,97.06,93.03,97.06-41.65,97.06-93.03-43.45-93.02-97.06-93.02Z"/>
  <path d="m1190.79,781.4c-49.9,0-90.36,38.78-90.36,86.61s40.46,86.61,90.36,86.61,90.36-38.78,90.36-86.61-40.46-86.61-90.36-86.61Z"/>
  <ellipse cx="1550.91" cy="868.01" rx="83.67" ry="80.19"/>
  <path d="m1911.03,794.23c-42.51,0-76.98,33.03-76.98,73.78s34.47,73.78,76.98,73.78,76.98-33.03,76.98-73.78-34.46-73.78-76.98-73.78Z"/>
  <path d="m2271.14,800.64c-38.82,0-70.28,30.16-70.28,67.36s31.47,67.36,70.28,67.36,70.28-30.16,70.28-67.36-31.46-67.36-70.28-67.36Z"/>
  <ellipse cx="2631.26" cy="868.01" rx="63.59" ry="60.95"/>
  <path d="m2991.38,813.47c-31.42,0-56.89,24.41-56.89,54.53s25.47,54.53,56.89,54.53,56.9-24.41,56.9-54.53-25.47-54.53-56.9-54.53Z"/>
  <path d="m3351.5,819.89c-27.73,0-50.2,21.54-50.2,48.12s22.48,48.12,50.2,48.12,50.2-21.54,50.2-48.12-22.48-48.12-50.2-48.12Z"/>
  <path d="m3711.61,826.31c-24.03,0-43.51,18.67-43.51,41.7s19.48,41.7,43.51,41.7,43.51-18.67,43.51-41.7-19.48-41.7-43.51-41.7Z"/>
  <path d="m4071.73,832.72c-20.33,0-36.82,15.8-36.82,35.29s16.48,35.28,36.82,35.28,36.81-15.8,36.81-35.28-16.48-35.29-36.81-35.29Z"/>
  <path d="m110.44,1016.2c-61,0-110.44,47.39-110.44,105.85s49.45,105.85,110.44,105.85,110.44-47.39,110.44-105.85-49.45-105.85-110.44-105.85Z"/>
  <path d="m470.56,1022.62c-57.3,0-103.75,44.52-103.75,99.44s46.45,99.44,103.75,99.44,103.75-44.52,103.75-99.44-46.45-99.44-103.75-99.44Z"/>
  <path d="m830.68,1029.03c-53.6,0-97.06,41.65-97.06,93.02s43.45,93.03,97.06,93.03,97.06-41.65,97.06-93.03-43.45-93.02-97.06-93.02Z"/>
  <path d="m1190.79,1035.45c-49.9,0-90.36,38.78-90.36,86.61s40.46,86.61,90.36,86.61,90.36-38.78,90.36-86.61-40.46-86.61-90.36-86.61Z"/>
  <path d="m1550.91,1041.86c-46.21,0-83.67,35.9-83.67,80.19s37.46,80.19,83.67,80.19,83.67-35.9,83.67-80.19-37.46-80.19-83.67-80.19Z"/>
  <path d="m1911.03,1048.28c-42.51,0-76.98,33.03-76.98,73.78s34.47,73.78,76.98,73.78,76.98-33.03,76.98-73.78-34.46-73.78-76.98-73.78Z"/>
  <path d="m2271.14,1054.69c-38.82,0-70.28,30.16-70.28,67.36s31.47,67.36,70.28,67.36,70.28-30.16,70.28-67.36-31.46-67.36-70.28-67.36Z"/>
  <path d="m2631.26,1061.11c-35.12,0-63.59,27.29-63.59,60.95s28.47,60.95,63.59,60.95,63.59-27.29,63.59-60.95-28.47-60.95-63.59-60.95Z"/>
  <path d="m2991.38,1067.53c-31.42,0-56.89,24.41-56.89,54.53s25.47,54.53,56.89,54.53,56.9-24.41,56.9-54.53-25.47-54.53-56.9-54.53Z"/>
  <path d="m3351.5,1073.94c-27.73,0-50.2,21.54-50.2,48.12s22.48,48.12,50.2,48.12,50.2-21.54,50.2-48.12-22.48-48.12-50.2-48.12Z"/>
  <path d="m3711.61,1080.36c-24.03,0-43.51,18.67-43.51,41.7s19.48,41.7,43.51,41.7,43.51-18.67,43.51-41.7-19.48-41.7-43.51-41.7Z"/>
  <path d="m4071.73,1086.77c-20.33,0-36.82,15.8-36.82,35.28s16.48,35.28,36.82,35.28,36.81-15.8,36.81-35.28-16.48-35.28-36.81-35.28Z"/>
</svg>