<?xml version="1.0" encoding="UTF-8"?>
<svg id="Layer_2" data-name="Layer 2" xmlns="http://www.w3.org/2000/svg" viewBox="0 0 952.44 206.23">
  <g id="Layer_1-2" data-name="Layer 1">
    <g>
      <path d="m952.44,116.49c-65.19-10.94-129.56-27.9-196.04-21.69,10.95,5.35,22.76,14.24,10.3,23.71-29.58,10.53-52.59-20.17-83.29-17.31,39.39-11.97,79.72-16.18,120.97-15.71-47.89-28.73,42.43-34.71,65.47-42.75-71.96,3.47-161.18-15.86-208.08,46.41,16.26-7.07,30.65-8.33,34.24-21.89,13.51-11.05,66.04-26.54,64.19.28-33.17,27.39-92.88,7.41-125.09,46.95,83.19-23.22,113.15,68.21,184.61,79.07-126.6-60.2,72.97-107.85,57.63-69.74,23.27-2.28,48.83-4.78,75.1-7.35Zm-193.02-67.54c15.43-.41,30.34-.81,46.45-1.24-12.24,9.76-37.19,9.24-26.6,33.32-37.48,3.4,1.82-11.95-19.84-32.08Zm-24.63,79.46c76.63,6.51,12.98-43.34,96.88-25.18-74.52,11.65-43.69,83.09-96.88,25.18Z"/>
      <path d="m710.78,0c-57.93,64.5-154.33,73.75-204.79,146.52,15.71-10.03,32.94-18.37,47.29-28.95,3.21-20.92,41.82-40.13,58.61-26.84,7.33,10.78-3.46,23.95-12.43,31.48-20.62,9.41-19.18-13.67-40.68,15.18,27.82-6.24,32.78-5.89,48.01,5.01,30.33-51.05,92.5-77.38,104.01-142.41Zm-31.44,48.15c-17.02,17.53-34.04,35.07-50.24,51.75-38.54-34.23,21.19-38.01,50.24-51.75Z"/>
      <path d="m489.1,139.28c33.46-25.79,72.75-46.41,99.49-78.8-13.04,8.76-34.02,10.79-23.66-8.53,10.34-16.91,29.03-22.52,49.81-15.79,16.73-16.1,38.3-23.65,61.1-29.24-60.77-1.83-117.92,8.39-168.58,41.04,70-5.8,8.26,46.96-31.05,80.31-39.31-33.35-101.05-86.11-31.05-80.31C394.51,15.31,337.35,5.08,276.59,6.91c22.8,5.59,44.37,13.14,61.1,29.24,20.78-6.73,39.48-1.12,49.81,15.79,10.37,19.33-10.62,17.3-23.66,8.53,26.75,32.39,66.04,53.01,99.49,78.8-4.84,4.21-8.74,7.76-11.13,10.35-6.32,18.78-12.84,37.56-18.22,56.6,9.27-23.18,24.45-40.97,42.24-56.43,17.79,15.46,32.97,33.25,42.24,56.43-5.39-19.04-11.9-37.82-18.22-56.6-2.39-2.59-6.29-6.14-11.13-10.35Zm126.21-112.45c-10.19,3.92-21.82-2.19-33.23-4.73,22.97-4.01,76.87-23.49,33.23,4.73Zm-65.62,31.75c2.55,13.71,6.6,16.65,22.57,15.51-30.27,19.1-59.38,37.46-90.17,56.89,22.79-25.31,56.47-39.72,67.6-72.39Zm-212.57-31.75c-43.64-28.21,10.26-8.73,33.23-4.73-11.41,2.53-23.03,8.65-33.23,4.73Zm65.62,31.75c11.13,32.67,44.8,47.08,67.6,72.39-30.79-19.43-59.9-37.79-90.17-56.89,15.98,1.14,20.02-1.8,22.57-15.51Z"/>
      <path d="m192.24,67.56c-1.85-26.83,50.69-11.33,64.19-.28,3.59,13.56,17.97,14.81,34.24,21.89-46.9-62.26-136.12-42.93-208.08-46.41,23.04,8.04,113.36,14.02,65.47,42.75,41.24-.47,81.57,3.73,120.97,15.71-30.7-2.87-53.71,27.84-83.29,17.31-12.47-9.47-.65-18.37,10.3-23.71-66.48-6.22-130.85,10.75-196.04,21.69,26.27,2.57,51.83,5.08,75.1,7.35-15.34-38.12,184.23,9.54,57.63,69.74,71.46-10.87,101.41-102.3,184.61-79.07-32.22-39.54-91.92-19.56-125.09-46.95Zm-19.06,13.48c10.58-24.08-14.36-23.56-26.6-33.32,16.11.43,31.02.83,46.45,1.24-21.66,20.13,17.64,35.48-19.84,32.08Zm-52.41,22.2c83.9-18.16,20.24,31.69,96.88,25.18-53.19,57.92-22.36-13.52-96.88-25.18Z"/>
      <path d="m399.17,117.57c14.35,10.57,31.58,18.92,47.29,28.95C395.99,73.75,299.59,64.5,241.66,0c11.51,65.03,73.68,91.37,104.01,142.41,15.23-10.91,20.19-11.25,48.01-5.01-21.5-28.86-20.06-5.77-40.68-15.18-8.97-7.53-19.76-20.7-12.43-31.48,16.79-13.29,55.4,5.92,58.61,26.84Zm-75.82-17.67c-16.2-16.68-33.22-34.22-50.24-51.75,29.06,13.74,88.79,17.52,50.24,51.75Z"/>
    </g>
  </g>
</svg>