<?xml version="1.0" encoding="UTF-8"?>
<svg id="Layer_2" data-name="Layer 2" xmlns="http://www.w3.org/2000/svg" viewBox="0 0 736 84.92">
  <g id="Layer_1-2" data-name="Layer 1">
    <g>
      <polygon points="35.86 0 0 0 0 5.66 32.08 28.31 32.08 30.19 32.08 54.73 32.08 56.62 0 79.26 0 84.92 35.86 84.92 56.62 69.83 56.62 54.73 56.62 30.19 56.62 15.1 35.86 0"/>
      <polygon points="92.47 0 56.62 0 56.62 5.66 88.7 28.31 88.7 30.19 88.7 54.73 88.7 56.62 56.62 79.26 56.62 84.92 92.47 84.92 113.23 69.83 113.23 54.73 113.23 30.19 113.23 15.1 92.47 0"/>
      <polygon points="149.09 0 113.23 0 113.23 5.66 145.31 28.31 145.31 30.19 145.31 54.73 145.31 56.62 113.23 79.26 113.23 84.92 149.09 84.92 169.85 69.83 169.85 54.73 169.85 30.19 169.85 15.1 149.09 0"/>
      <polygon points="205.7 0 169.85 0 169.85 5.66 201.93 28.31 201.93 30.19 201.93 54.73 201.93 56.62 169.85 79.26 169.85 84.92 205.7 84.92 226.46 69.83 226.46 54.73 226.46 30.19 226.46 15.1 205.7 0"/>
      <polygon points="262.32 0 226.46 0 226.46 5.66 258.54 28.31 258.54 30.19 258.54 54.73 258.54 56.62 226.46 79.26 226.46 84.92 262.32 84.92 283.08 69.83 283.08 54.73 283.08 30.19 283.08 15.1 262.32 0"/>
      <polygon points="318.93 0 283.08 0 283.08 5.66 315.16 28.31 315.16 30.19 315.16 54.73 315.16 56.62 283.08 79.26 283.08 84.92 318.93 84.92 339.69 69.83 339.69 54.73 339.69 30.19 339.69 15.1 318.93 0"/>
      <polygon points="375.55 0 339.69 0 339.69 5.66 371.77 28.31 371.77 30.19 371.77 54.73 371.77 56.62 339.69 79.26 339.69 84.92 375.55 84.92 396.31 69.83 396.31 54.73 396.31 30.19 396.31 15.1 375.55 0"/>
      <polygon points="432.16 0 396.31 0 396.31 5.66 428.39 28.31 428.39 30.19 428.39 54.73 428.39 56.62 396.31 79.26 396.31 84.92 432.16 84.92 452.92 69.83 452.92 54.73 452.92 30.19 452.92 15.1 432.16 0"/>
      <polygon points="488.78 0 452.92 0 452.92 5.66 485.01 28.31 485.01 30.19 485.01 54.73 485.01 56.62 452.92 79.26 452.92 84.92 488.78 84.92 509.54 69.83 509.54 54.73 509.54 30.19 509.54 15.1 488.78 0"/>
      <polygon points="545.39 0 509.54 0 509.54 5.66 541.62 28.31 541.62 30.19 541.62 54.73 541.62 56.62 509.54 79.26 509.54 84.92 545.39 84.92 566.15 69.83 566.15 54.73 566.15 30.19 566.15 15.1 545.39 0"/>
      <polygon points="602.01 0 566.15 0 566.15 5.66 598.24 28.31 598.24 30.19 598.24 54.73 598.24 56.62 566.15 79.26 566.15 84.92 602.01 84.92 622.77 69.83 622.77 54.73 622.77 30.19 622.77 15.1 602.01 0"/>
      <polygon points="658.63 0 622.77 0 622.77 5.66 654.85 28.31 654.85 30.19 654.85 54.73 654.85 56.62 622.77 79.26 622.77 84.92 658.63 84.92 679.38 69.83 679.38 54.73 679.38 30.19 679.38 15.1 658.63 0"/>
      <polygon points="715.24 0 679.38 0 679.38 5.66 711.47 28.31 711.47 30.19 711.47 54.73 711.47 56.62 679.38 79.26 679.38 84.92 715.24 84.92 736 69.83 736 54.73 736 30.19 736 15.1 715.24 0"/>
    </g>
  </g>
</svg>