<?xml version="1.0" encoding="UTF-8"?>
<svg id="Layer_2" data-name="Layer 2" xmlns="http://www.w3.org/2000/svg" viewBox="0 0 19.74 9.63">
  <g id="Layer_1-2" data-name="Layer 1">
    <g>
      <path d="m9.87,7.05c-5.45,0-9.87.58-9.87,1.29s4.42,1.29,9.87,1.29,9.87-.58,9.87-1.29-4.42-1.29-9.87-1.29Z"/>
      <path d="m9.87,4.62c-5.45,0-9.87.44-9.87.99s4.42.99,9.87.99,9.87-.44,9.87-.99-4.42-.99-9.87-.99Z"/>
      <ellipse cx="9.87" cy="3.42" rx="9.87" ry=".72"/>
      <path d="m0,1.86c0,.2,4.42.36,9.87.36s9.87-.16,9.87-.36-4.42-.36-9.87-.36S0,1.66,0,1.86Z"/>
      <path d="m0,.84c0,.1,4.42.18,9.87.18s9.87-.08,9.87-.18-4.42-.18-9.87-.18S0,.74,0,.84Z"/>
      <ellipse cx="9.87" cy=".09" rx="9.87" ry=".09"/>
    </g>
  </g>
</svg>